<svg width="81" height="81" viewBox="0 0 81 81" fill="none" xmlns="http://www.w3.org/2000/svg">
<path d="M56.9957 15.3061C49.6321 6.50159 42.3658 0.779905 42.06 0.540711C40.4032 -0.755402 37.9688 0.424277 37.9688 2.534V13.6645C37.9688 19.4126 30.3635 21.4359 27.5113 16.4392C26.6305 14.8962 24.4765 14.7215 23.3553 16.0898C15.6932 25.4393 8.86047 37.2247 8.86047 49.3605C8.86047 66.8065 23.054 81 40.5 81C57.946 81 72.1395 66.8065 72.1395 49.3605C72.1395 36.9086 64.9448 24.8103 56.9957 15.3061ZM40.5 75.9377C25.8452 75.9377 13.9228 64.0153 13.9228 49.3605C13.9228 39.1504 19.7608 29.0512 25.3579 21.7161C31.9888 27.5719 43.0311 23.072 43.0311 13.6645V8.05826C54.2556 18.3131 67.0772 34.1844 67.0772 49.3605C67.0772 64.0153 55.1548 75.9377 40.5 75.9377Z" fill="#6C6C80"/>
<path d="M50.913 35.9722C49.8097 35.1142 48.2195 35.3129 47.361 36.4163L29.6429 59.1967C28.3412 60.8705 29.5608 63.282 31.6392 63.282C32.3935 63.282 33.1398 62.9462 33.6389 62.3047L51.3571 39.5242C52.2153 38.4208 52.0164 36.8304 50.913 35.9722Z" fill="#6C6C80"/>
<path d="M49.3591 63.2819C52.1549 63.2819 54.4214 61.0154 54.4214 58.2195C54.4214 55.4237 52.1549 53.1572 49.3591 53.1572C46.5632 53.1572 44.2968 55.4237 44.2968 58.2195C44.2968 61.0154 46.5632 63.2819 49.3591 63.2819Z" fill="#6C6C80"/>
<path d="M31.6409 45.5637C34.4368 45.5637 36.7033 43.2973 36.7033 40.5014C36.7033 37.7056 34.4368 35.4391 31.6409 35.4391C28.8451 35.4391 26.5786 37.7056 26.5786 40.5014C26.5786 43.2973 28.8451 45.5637 31.6409 45.5637Z" fill="#6C6C80"/>
</svg>
