<svg width="75" height="75" viewBox="0 0 75 75" fill="none" xmlns="http://www.w3.org/2000/svg">
<g clip-path="url(#clip0)">
<path d="M64.4531 32.8049C65.7476 32.8049 66.7969 31.7555 66.7969 30.4611C66.7969 29.1668 65.7476 28.1174 64.4531 28.1174H56.25C54.9555 28.1174 53.9062 29.1668 53.9062 30.4611V44.5236C53.9062 45.818 54.9555 46.8674 56.25 46.8674H64.4531C65.7476 46.8674 66.7969 45.818 66.7969 44.5236C66.7969 43.2293 65.7476 42.1799 64.4531 42.1799H58.5938V39.8361H62.1094C63.4039 39.8361 64.4531 38.7867 64.4531 37.4924C64.4531 36.198 63.4039 35.1486 62.1094 35.1486H58.5938V32.8049H64.4531Z" fill="#6C6C80"/>
<path d="M49.2188 32.8049C50.5132 32.8049 51.5625 31.7555 51.5625 30.4611C51.5625 29.1668 50.5132 28.1174 49.2188 28.1174H41.0156C39.7211 28.1174 38.6719 29.1668 38.6719 30.4611V44.5236C38.6719 45.818 39.7211 46.8674 41.0156 46.8674H49.2188C50.5132 46.8674 51.5625 45.818 51.5625 44.5236C51.5625 43.2293 50.5132 42.1799 49.2188 42.1799H43.3594V39.8361H46.875C48.1695 39.8361 49.2188 38.7867 49.2188 37.4924C49.2188 36.198 48.1695 35.1486 46.875 35.1486H43.3594V32.8049H49.2188Z" fill="#6C6C80"/>
<path d="M18.75 28.1174H10.5469C9.25239 28.1174 8.20312 29.1668 8.20312 30.4611V44.5236C8.20312 45.818 9.25239 46.8674 10.5469 46.8674C11.8414 46.8674 12.8906 45.818 12.8906 44.5236V39.8361H16.4062C17.7007 39.8361 18.75 38.7867 18.75 37.4924C18.75 36.198 17.7007 35.1486 16.4062 35.1486H12.8906V32.8049H18.75C20.0445 32.8049 21.0938 31.7555 21.0938 30.4611C21.0938 29.1668 20.0445 28.1174 18.75 28.1174Z" fill="#6C6C80"/>
<path d="M30.4687 28.1174H25.7812C24.4868 28.1174 23.4375 29.1668 23.4375 30.4611V44.5236C23.4375 45.818 24.4868 46.8674 25.7812 46.8674C27.0757 46.8674 28.125 45.818 28.125 44.5236V39.8361H30.4687C31.1149 39.8361 31.6406 40.3619 31.6406 41.008V44.5236C31.6406 45.818 32.6899 46.8674 33.9844 46.8674C35.2789 46.8674 36.3281 45.818 36.3281 44.5236V41.008C36.3281 39.6899 35.8904 38.4724 35.153 37.4924C38.0314 33.6668 35.3082 28.1174 30.4687 28.1174ZM28.125 35.1486V32.8049H30.4687C31.1149 32.8049 31.6406 33.3306 31.6406 33.9767C31.6406 34.6229 31.1149 35.1486 30.4687 35.1486H28.125Z" fill="#6C6C80"/>
<path d="M67.9688 19.9143H65.2066C52.3871 -0.249603 22.7584 -0.478559 9.79336 19.9143H7.03125C3.1541 19.9143 0 23.0685 0 26.9455V48.0393C0 51.9163 3.1541 55.0705 7.03125 55.0705H9.79336C22.6975 75.3674 52.3 75.3713 65.2066 55.0705H67.9688C71.8459 55.0705 75 51.9163 75 48.0393V26.9455C75 23.0685 71.8459 19.9143 67.9688 19.9143ZM59.4489 19.9143H15.5511C26.8235 5.88707 48.1428 5.84517 59.4489 19.9143ZM15.5511 55.0705H59.4491C48.1765 69.0977 26.8572 69.1396 15.5511 55.0705ZM70.3125 48.0393C70.3125 49.3316 69.261 50.383 67.9688 50.383H7.03125C5.73897 50.383 4.6875 49.3316 4.6875 48.0393V26.9455C4.6875 25.6532 5.73897 24.6018 7.03125 24.6018H67.9688C69.261 24.6018 70.3125 25.6532 70.3125 26.9455V48.0393Z" fill="#6C6C80"/>
</g>
<defs>
<clipPath id="clip0">
<rect width="75" height="75" fill="white"/>
</clipPath>
</defs>
</svg>
