<svg width="80" height="67" viewBox="0 0 80 67" fill="none" xmlns="http://www.w3.org/2000/svg">
<path d="M55.8621 0C49.8089 0 44.0587 2.31646 39.7091 6.43494C35.3595 2.31646 29.6093 0 23.5561 0C1.8766 0 -14.4922 29.7426 19.5995 55.5695C29.0487 62.7278 38.3627 66.6458 38.7548 66.8091C39.3653 67.0636 40.0528 67.0637 40.6635 66.8091C41.0555 66.6458 50.3697 62.7278 59.8189 55.5695C93.801 29.8255 77.6148 0 55.8621 0ZM56.903 51.552C49.644 57.0662 42.2802 60.6341 39.7091 61.8053C24.2679 54.7708 4.96837 40.6634 4.96837 23.6305C4.96837 13.3372 13.3068 4.96296 23.5561 4.96296C29.0654 4.96296 34.259 7.39807 37.8044 11.6437C38.7951 12.83 40.6217 12.8317 41.6139 11.6437C45.1594 7.39807 50.3529 4.96296 55.8623 4.96296C73.3459 4.96296 86.5559 29.027 56.903 51.552Z" fill="#6C6C80"/>
<path d="M49.9177 19.1339C48.8361 18.2929 47.2771 18.4875 46.4354 19.5693L29.0651 41.9026C27.789 43.5435 28.9846 45.9077 31.0222 45.9077C31.7617 45.9077 32.4934 45.5784 32.9827 44.9495L50.3531 22.6162C51.1945 21.5343 50.9995 19.9753 49.9177 19.1339Z" fill="#6C6C80"/>
<path d="M48.3941 45.9074C51.1351 45.9074 53.3571 43.6854 53.3571 40.9444C53.3571 38.2035 51.1351 35.9815 48.3941 35.9815C45.6531 35.9815 43.4312 38.2035 43.4312 40.9444C43.4312 43.6854 45.6531 45.9074 48.3941 45.9074Z" fill="#6C6C80"/>
<path d="M31.0238 28.537C33.7647 28.537 35.9867 26.315 35.9867 23.5741C35.9867 20.8331 33.7647 18.6111 31.0238 18.6111C28.2828 18.6111 26.0608 20.8331 26.0608 23.5741C26.0608 26.315 28.2828 28.537 31.0238 28.537Z" fill="#6C6C80"/>
</svg>
