<svg width="481" height="338" viewBox="0 0 481 338" fill="none" xmlns="http://www.w3.org/2000/svg">
<path d="M203.697 64.8803C187.721 6.9247 115.727 -11.7456 74.4683 31.5676C73.8759 32.1902 73.2843 32.8222 72.6923 33.4656C13.5414 97.7648 41.4846 256.218 164.932 296.38C288.378 336.541 416.78 263.203 423.992 197.644C431.206 132.085 374.255 111.484 285.87 129.817C235.935 140.174 213.644 100.959 203.697 64.8803Z" fill="#D4BDE3"/>
<path d="M306.389 74.7934C289.872 77.4824 285.295 92.1145 298.047 102.496C302.262 105.927 308.282 108.779 316.858 110.201C349.525 115.62 366.86 101.167 353.766 82.427C345.684 70.8612 322.757 72.1283 306.389 74.7934Z" fill="#D4BDE3"/>
<path d="M50.7725 193.234C42.6621 178.597 27.3426 179.231 21.8799 194.741C20.0743 199.867 19.4246 206.496 20.9826 215.048C26.9167 247.627 46.3768 259.061 59.5914 240.405C67.7477 228.891 58.8098 207.74 50.7725 193.234Z" fill="#D4BDE3"/>
<path d="M435.635 205.263C434.113 213.228 440.691 218.87 448.144 215.802C450.607 214.786 453.091 212.83 455.301 209.393C463.722 196.294 459.457 185.056 447.733 186.21C440.496 186.922 437.143 197.369 435.635 205.263Z" fill="#D4BDE3"/>
<path d="M393.88 121.209C401.818 122.866 407.572 116.386 404.629 108.883C403.657 106.402 401.744 103.885 398.343 101.617C385.39 92.9741 374.083 97.0466 375.037 108.788C375.625 116.036 386.014 119.568 393.88 121.209Z" fill="#D4BDE3"/>
<path d="M200.94 35.9737C207.225 41.0981 215.314 37.9934 216.156 29.9773C216.433 27.3277 215.894 24.2115 213.919 20.6327C206.396 6.99956 194.483 5.41131 189.926 16.2744C187.113 22.9798 194.711 30.8961 200.94 35.9737Z" fill="#D4BDE3"/>
<path d="M452.297 322.019C455.023 322.475 457.867 321.712 459.766 319.703C461.005 318.395 461.844 316.778 461.843 315.23V315.162C461.808 304.052 475.459 304.792 479.841 291.206C484.222 277.623 466.904 276.48 457.012 284.866C449.9 290.898 441.364 282.471 431.027 289.506C422.051 295.609 427.05 310.642 412.327 305.942C407.627 304.439 403.416 305.887 399.864 308.553C395.774 311.624 393.11 315.926 392.002 320.597L393.174 321.427C422.213 339.225 435.298 319.182 452.297 322.019Z" fill="#765CB4"/>
<path d="M423.524 321.427L462.02 296.714C462.536 296.384 462.684 295.698 462.354 295.182C462.023 294.667 461.337 294.518 460.822 294.848L419.418 321.427H423.524Z" fill="#583C9F"/>
<path d="M421.449 247.907C419.823 223.686 419.557 198.286 421.36 181.445C423.715 159.444 429.042 144.128 437.194 135.923C437.735 135.381 438.614 135.378 439.158 135.918C439.701 136.459 439.704 137.337 439.164 137.882C424.912 152.223 419.788 190.73 424.316 249.319L421.449 247.907Z" fill="#4C3297"/>
<path d="M425.093 162.007C425.093 162.007 413.489 161.988 414.318 141.587C414.318 141.587 432.074 146.652 425.093 162.007Z" fill="#583C9F"/>
<path d="M424.121 172.502C424.121 172.502 423.494 160.916 443.909 160.608C443.909 160.608 439.84 178.617 424.121 172.502Z" fill="#583C9F"/>
<path d="M432.995 143.885C432.995 143.885 428.54 133.17 447.686 126.074C447.686 126.074 449.854 144.409 432.995 143.885Z" fill="#583C9F"/>
<path d="M421.514 193.558C421.514 193.558 410.589 197.466 404.469 177.986C404.469 177.986 422.891 176.747 421.514 193.558Z" fill="#583C9F"/>
<path d="M422.144 204.4C422.144 204.4 419.522 193.095 439.577 189.262C439.577 189.262 438.683 207.705 422.144 204.4Z" fill="#583C9F"/>
<path d="M421.53 219.331C421.53 219.331 410.68 223.446 404.191 204.085C404.191 204.085 422.587 202.498 421.53 219.331Z" fill="#583C9F"/>
<path d="M84.7789 301.89L81.617 301.765L79.9404 301.697L75.1897 301.508C75.1897 301.508 31.2856 226.976 58.7899 202.67C67.2572 195.187 82.0598 201.39 78.7876 235.782C75.755 267.661 84.7789 301.89 84.7789 301.89Z" fill="#583C9F"/>
<path d="M81.617 301.765L79.9404 301.697C72.2758 283.638 68.4064 264.239 66.4862 250.623C64.2056 234.454 64.0992 222.714 64.1 222.599C64.096 222.178 64.4334 221.836 64.8524 221.835C65.2718 221.83 65.6137 222.169 65.617 222.586C65.6174 222.704 65.722 234.362 67.9926 250.436C69.9245 264.119 73.8349 283.677 81.617 301.765Z" fill="#4C3297"/>
<path d="M93.5019 316.822L89.2069 318.416L86.9285 319.262L80.4751 321.653C80.4751 321.653 -19.7205 246.524 3.4885 198.722C10.6329 184.005 33.87 184.047 48.6595 231.825C62.3711 276.113 93.5019 316.822 93.5019 316.822Z" fill="#765CB4"/>
<path d="M89.207 318.416L86.9286 319.262C66.6251 299.401 50.6451 275.635 40.4919 258.51C28.4349 238.177 21.7517 222.548 21.688 222.392C21.4488 221.834 21.7091 221.188 22.2686 220.954C22.8269 220.714 23.4717 220.975 23.7083 221.531C23.775 221.689 30.4103 237.208 42.4006 257.422C52.6062 274.628 68.7292 298.583 89.207 318.416Z" fill="#583C9F"/>
<path d="M435.988 321.073C435.939 319.342 435.735 317.592 435.356 315.855C431.753 299.366 441.553 296.256 454.474 291.048C467.39 285.84 468.928 270.371 459.78 257.514C450.63 244.656 467.07 234.324 461.016 214.976C454.963 195.626 433.939 208.497 429.339 226.334C426.035 239.16 409.226 236.385 403.003 253.019C397.596 267.457 415.717 280.793 394.788 287.412C388.104 289.523 384.408 294.654 382.473 300.659C380.245 307.573 380.682 314.745 383.226 321.073H435.988Z" fill="#583C9F"/>
<path d="M410.388 321.073L444.861 235.972C445.188 235.165 444.798 234.248 443.991 233.921C443.185 233.595 442.268 233.986 441.941 234.791L406.991 321.073H410.388Z" fill="#4C3297"/>
<path d="M123.158 63.7899C123.158 63.7899 123.882 48.4687 114.564 45.5261C100.053 40.9432 96.0152 48.4687 93.7752 53.4414C90.9043 59.8141 92.1288 72.3143 100.786 73.5211C113.709 75.3235 122.36 68.0714 123.158 63.7899Z" fill="#3E3358"/>
<path d="M132.512 115.024C140.053 115.024 146.567 109.739 148.112 102.358C149.223 97.0414 150.31 92.3338 150.31 89.6906V89.6219C150.377 88.7862 150.415 87.9505 150.421 87.1273C150.52 75.0377 143.067 52.957 116.851 56.4672C116.851 56.4672 95.0984 58.9494 92.6214 80.2068C92.6214 80.2068 91.5914 90.0138 90.9053 97.1152C90.8929 97.242 90.8804 97.3667 90.8679 97.4904C89.9116 106.877 97.2926 115.024 106.727 115.024H132.512Z" fill="#3E3358"/>
<path d="M163.635 140.292C163.635 140.292 168.271 177.016 173.566 195.87C173.566 195.87 181.09 192.366 190.936 187.609C201.613 182.45 216.962 173.039 216.962 173.039L220.842 182.385C220.842 182.385 181.193 219.806 168.059 221.924C154.926 224.042 146.877 177.016 146.877 177.016L163.635 140.292Z" fill="#583C9F"/>
<path d="M216.15 174.135C216.15 174.135 215.06 168.917 217.395 165.387C219.729 161.855 223.284 155.244 227.459 153.865C230.95 152.71 225.798 158.604 225.644 162.345C225.644 162.345 230.838 161.693 234.585 160.476C237.88 159.406 244.4 158.071 247.424 157.475C248.251 157.312 248.785 158.356 248.145 158.909C247.115 159.803 244.961 160.927 240.505 162.001C240.505 162.001 251.365 159.944 252.491 161.608C253.618 163.27 239.993 165.592 239.993 165.592C239.993 165.592 250.565 164.966 250.84 166.625C251.007 167.635 240.054 169.947 240.054 169.947C240.054 169.947 250.049 170.215 247.632 171.793C246.927 172.253 227.578 174.43 220.842 182.385C220.842 182.385 216.31 177.7 216.15 174.135Z" fill="#F6876F"/>
<path d="M96.7781 133.059C96.7781 133.059 74.5961 139.6 55.4942 143.91C55.4942 143.91 54.9985 135.626 54.4982 124.702C53.9557 112.856 54.9318 94.8783 54.9318 94.8783L44.8668 95.9125C44.8668 95.9125 30.8121 148.589 35.1964 161.148C39.5802 173.709 95.2512 156.115 95.2512 156.115L96.7781 133.059Z" fill="#583C9F"/>
<path d="M54.3553 96.1152C54.3553 96.1152 59.4631 94.5914 61.4583 90.8578C63.4535 87.1242 68.9658 79.606 65.5637 76.8224C64.3216 75.8058 63.4264 80.2411 60.2093 82.1546C60.2093 82.1546 58.3124 77.2766 57.6003 73.4016C56.9741 69.9933 55.0467 63.6236 54.1323 60.681C53.8814 59.8744 52.7096 59.9035 52.5269 60.7278C52.2317 62.0593 52.2683 64.4895 53.4437 68.9195C53.4437 68.9195 50.0859 58.3891 48.0865 58.1885C46.0873 57.9889 50.5272 71.0784 50.5272 71.0784C50.5272 71.0784 46.0483 61.4824 44.4587 62.0291C43.4908 62.3618 46.6671 73.096 46.6671 73.096C46.6671 73.096 41.6763 64.4323 41.4382 67.3084C41.3692 68.1462 48.6591 86.2022 44.8668 95.9126C44.8668 95.9126 51.1432 97.6702 54.3553 96.1152Z" fill="#F6876F"/>
<path d="M162.806 282.58L162.983 283.365C145.709 295.059 81.1014 287.073 81.1014 287.073C81.2116 285.718 81.3561 284.301 81.5453 282.835C81.7459 281.201 81.9964 279.507 82.2843 277.758C83.0649 273.055 84.1116 267.969 85.2872 262.736C85.6645 261.089 86.0429 259.416 86.441 257.737C87.6083 252.743 88.8483 247.678 90.0229 242.744C90.4293 241.048 90.8284 239.376 91.2141 237.713C91.7525 235.404 92.2618 233.132 92.7504 230.931C93.3875 228.003 93.954 225.189 94.4301 222.539C94.7513 220.757 95.0298 219.048 95.244 217.425C95.4903 215.708 95.6587 214.086 95.7616 212.583C94.7346 208.788 93.7773 205.069 92.8855 201.464C92.4417 199.627 92.0072 197.831 91.58 196.057C90.2536 190.377 89.0864 184.97 88.0677 179.906C87.706 178.066 87.3495 176.275 87.0241 174.529C85.8953 168.556 84.9827 163.151 84.2478 158.435C83.964 156.555 83.6969 154.801 83.463 153.145C83.2042 151.334 82.9828 149.657 82.7895 148.138C81.9226 141.451 81.6232 137.659 81.6232 137.659C81.775 137.537 81.9351 137.425 82.0993 137.306C84.0586 135.914 87.1229 134.603 90.5281 133.441C94.1224 132.208 98.0982 131.137 101.602 130.29C102.132 130.163 102.654 130.04 103.163 129.921C107.768 128.845 111.21 128.22 111.21 128.22C126.876 131.502 131.346 129.391 131.346 129.391L139.31 131.74L140.246 132.069L146.05 134.106L146.285 134.193L156.693 137.857L163.635 140.292L160.94 152.718L159.767 158.144L156.217 174.5L155.051 179.906L151.518 196.205L150.356 201.557L147.431 215.064L148.014 217.643L149.156 222.649L150.968 230.61L152.614 237.811L153.748 242.802L157.158 257.814L158.295 262.778L161.676 277.618L162.806 282.58Z" fill="#765CB4"/>
<path d="M140.246 132.069C138.579 141.862 133.831 151.712 123.96 152.777C112.036 154.067 105.853 139.109 103.163 129.921C107.768 128.845 112.54 127.793 112.54 127.793C128.206 131.074 131.229 129.076 131.229 129.076L139.31 131.74L140.246 132.069Z" fill="#F6876F"/>
<path d="M122.748 144.551C110.251 144.551 107.263 129.116 107.234 128.957C107.173 128.622 107.394 128.301 107.728 128.24C108.063 128.18 108.383 128.4 108.446 128.734C108.56 129.354 111.395 143.918 123.474 143.3C134.046 142.765 134.669 131.032 134.689 130.533C134.704 130.193 134.987 129.927 135.331 129.944C135.671 129.958 135.935 130.245 135.921 130.584C135.915 130.718 135.236 143.94 123.536 144.531C123.27 144.544 123.007 144.551 122.748 144.551Z" fill="white"/>
<path d="M100.33 140.294C100.33 141.98 98.9642 143.345 97.2792 143.345C95.5943 143.345 94.2285 141.98 94.2285 140.294C94.2285 138.609 95.5943 137.245 97.2792 137.245C98.9642 137.245 100.33 138.609 100.33 140.294Z" fill="#583C9F"/>
<path d="M94.2191 155.179C94.2191 156.864 92.8533 158.23 91.1694 158.23C89.4845 158.23 88.1187 156.864 88.1187 155.179C88.1187 153.495 89.4845 152.129 91.1694 152.129C92.8533 152.129 94.2191 153.495 94.2191 155.179Z" fill="#583C9F"/>
<path d="M113.698 162.217C113.698 163.901 112.332 165.267 110.647 165.267C108.962 165.267 107.596 163.901 107.596 162.217C107.596 160.532 108.962 159.165 110.647 159.165C112.332 159.165 113.698 160.532 113.698 162.217Z" fill="#583C9F"/>
<path d="M100.112 170.538C100.737 172.102 99.9754 173.877 98.4111 174.502C96.8457 175.127 95.0714 174.365 94.4467 172.8C93.822 171.237 94.5829 169.462 96.1472 168.836C97.7116 168.211 99.4869 168.973 100.112 170.538Z" fill="#583C9F"/>
<path d="M126.556 176.172C126.556 177.856 125.19 179.222 123.505 179.222C121.821 179.222 120.454 177.856 120.454 176.172C120.454 174.486 121.821 173.121 123.505 173.121C125.19 173.121 126.556 174.486 126.556 176.172Z" fill="#583C9F"/>
<path d="M146.012 182.457C146.012 184.143 144.646 185.508 142.961 185.508C141.276 185.508 139.91 184.143 139.91 182.457C139.91 180.773 141.276 179.407 142.961 179.407C144.646 179.407 146.012 180.773 146.012 182.457Z" fill="#583C9F"/>
<path d="M149.926 143.345C149.926 145.03 148.561 146.396 146.877 146.396C145.192 146.396 143.826 145.03 143.826 143.345C143.826 141.66 145.192 140.294 146.877 140.294C148.561 140.294 149.926 141.66 149.926 143.345Z" fill="#583C9F"/>
<path d="M127.79 195.652C127.79 197.336 126.424 198.702 124.74 198.702C123.055 198.702 121.689 197.336 121.689 195.652C121.689 193.967 123.055 192.601 124.74 192.601C126.424 192.601 127.79 193.967 127.79 195.652Z" fill="#583C9F"/>
<path d="M108.997 205.11C108.997 206.795 107.631 208.161 105.946 208.161C104.262 208.161 102.896 206.795 102.896 205.11C102.896 203.425 104.262 202.06 105.946 202.06C107.631 202.06 108.997 203.425 108.997 205.11Z" fill="#583C9F"/>
<path d="M106.808 187.885C106.808 189.57 105.442 190.935 103.757 190.935C102.072 190.935 100.706 189.57 100.706 187.885C100.706 186.2 102.072 184.835 103.757 184.835C105.442 184.835 106.808 186.2 106.808 187.885Z" fill="#583C9F"/>
<path d="M136.861 163.013C136.861 164.698 135.495 166.065 133.81 166.065C132.125 166.065 130.759 164.698 130.759 163.013C130.759 161.329 132.125 159.963 133.81 159.963C135.495 159.963 136.861 161.329 136.861 163.013Z" fill="#583C9F"/>
<path d="M153.727 159.165C153.727 160.85 152.361 162.217 150.676 162.217C148.991 162.217 147.626 160.85 147.626 159.165C147.626 157.48 148.991 156.115 150.676 156.115C152.361 156.115 153.727 157.48 153.727 159.165Z" fill="#583C9F"/>
<path d="M142.961 200.699C142.961 202.383 141.596 203.749 139.91 203.749C138.227 203.749 136.861 202.383 136.861 200.699C136.861 199.014 138.227 197.648 139.91 197.648C141.596 197.648 142.961 199.014 142.961 200.699Z" fill="#583C9F"/>
<path d="M143.78 224.834C143.78 226.519 142.414 227.886 140.729 227.886C139.045 227.886 137.679 226.519 137.679 224.834C137.679 223.149 139.045 221.784 140.729 221.784C142.414 221.784 143.78 223.149 143.78 224.834Z" fill="#583C9F"/>
<path d="M128.253 214.764C128.878 216.329 128.116 218.104 126.552 218.729C124.987 219.354 123.212 218.593 122.587 217.027C121.962 215.463 122.723 213.687 124.288 213.064C125.853 212.438 127.627 213.2 128.253 214.764Z" fill="#583C9F"/>
<path d="M107.485 223.702C108.11 225.268 107.348 227.042 105.784 227.668C104.219 228.293 102.445 227.531 101.819 225.966C101.195 224.402 101.957 222.627 103.521 222.002C105.085 221.377 106.861 222.138 107.485 223.702Z" fill="#583C9F"/>
<path d="M169.269 321.051L168.637 317.25L166.176 302.508L165.332 297.456L162.982 283.365L158.71 283.557L102.07 286.127L81.1024 287.072L79.7543 298.032L79.1234 303.138L77.2622 318.277L76.9203 321.051H169.269Z" fill="#765CB4"/>
<path d="M169.266 321.051L168.687 317.617L168.639 317.256L168.231 314.829L167.822 312.426L166.164 302.502L165.683 299.57L165.323 297.454L165.275 297.142L163.136 284.286L162.992 283.372L162.8 282.58L162.631 281.884L161.671 277.629L159.772 269.315L159.219 266.937L158.282 262.779L157.152 257.804L156.383 254.393L155.83 252.012L153.74 242.809L152.971 239.446L152.611 237.811L152.443 237.066L150.976 230.602C127.956 237.402 103.565 233.365 92.7503 230.938C92.2691 233.125 91.741 235.407 91.212 237.715C91.0924 238.219 90.9718 238.723 90.8523 239.228C90.66 240.021 90.4677 240.815 90.2754 241.608C90.2027 241.992 90.107 242.352 90.0104 242.738C89.1217 246.51 88.1841 250.354 87.2715 254.175C87.0792 254.969 86.9108 255.762 86.7185 256.531C86.6218 256.939 86.5262 257.324 86.4306 257.731C86.046 259.415 85.6614 261.097 85.2768 262.731C84.7966 264.917 84.3392 267.056 83.9068 269.17C83.7384 269.963 83.5701 270.733 83.4266 271.502C82.9942 273.641 82.6096 275.731 82.2728 277.75C81.9839 279.504 81.7448 281.186 81.5515 282.845C81.4798 283.349 81.4319 283.853 81.3592 284.334C81.2875 285.151 81.1918 285.945 81.1191 286.738C81.1191 286.857 81.0952 286.954 81.0952 287.073L79.7499 298.032L79.5334 299.738L79.2452 302.117L79.125 303.125L77.6349 315.117L77.3466 317.521L77.2508 318.29L76.9175 321.051H169.266Z" fill="#3E3358"/>
<path d="M141.407 91.0854C141.407 91.0854 145.151 86.3415 147.937 90.2643C150.721 94.1871 146.784 105.775 139.967 102.946L141.407 91.0854Z" fill="#F25349"/>
<path d="M141.455 99.3656C141.707 99.3656 141.938 99.2076 142.01 98.9654C143.066 95.3887 146.967 93.9377 147.007 93.9242C147.303 93.8161 147.453 93.5001 147.339 93.2173C147.228 92.9357 146.895 92.7932 146.598 92.8993C146.416 92.9648 142.117 94.5509 140.901 98.6702C140.815 98.9612 140.993 99.2627 141.299 99.3448L141.455 99.3656Z" fill="#E43342"/>
<path d="M145.392 97.5632C145.499 97.5632 145.608 97.5351 145.704 97.4759C145.971 97.3116 146.048 96.9738 145.877 96.7192C145.848 96.6776 145.157 95.6766 143.714 95.0633C143.425 94.9397 143.083 95.0633 142.953 95.3388C142.823 95.6153 142.953 95.9385 143.244 96.0622C144.36 96.5372 144.903 97.3054 144.908 97.3116C145.018 97.4748 145.203 97.5632 145.392 97.5632Z" fill="#E43342"/>
<path d="M139.72 102.872C139.077 103.589 138.681 104.534 138.681 105.57C138.681 107.808 140.502 109.629 142.74 109.629C144.978 109.629 146.799 107.808 146.799 105.57C146.799 104.28 146.195 103.131 145.254 102.388C144.782 102.016 144.227 101.745 143.62 101.61C143.518 101.335 143.568 101.078 143.767 100.841C144.543 101.011 145.249 101.364 145.838 101.857C146.904 102.743 147.58 104.079 147.58 105.57C147.58 108.24 145.41 110.411 142.74 110.411C140.072 110.411 137.899 108.24 137.899 105.57C137.899 104.419 138.308 103.367 138.981 102.537C139.228 102.649 139.474 102.761 139.72 102.872Z" fill="white"/>
<path d="M112.54 115.324V129.538C112.54 129.538 119.147 134.637 124.3 135.079C129.45 135.528 131.229 129.452 131.229 129.452V116.223L112.54 115.324Z" fill="#F6876F"/>
<path d="M112.54 116.717V122.387C115.998 126.226 122.138 127.585 131.228 126.243L131.229 117.616L112.54 116.717Z" fill="#F25349"/>
<path d="M143.658 96.4895C143.493 97.8615 143.3 99.2585 143.053 100.649C141.421 109.892 135.574 119.877 128.191 121.552C112.249 125.171 105.629 112.65 103.08 103.412C102.799 102.386 103.327 101.211 103.104 99.9955C102.575 97.1173 101.412 93.8472 101.148 90.6229C100.966 88.3871 100.837 86.1835 100.743 84.1909C100.485 78.5738 103.738 73.412 108.823 71.3955C116.152 68.4809 127.28 66.1724 137.821 72.3549C141.714 74.6385 144.157 78.8649 144.245 83.4924C144.309 87.0275 144.221 91.6488 143.658 96.4895Z" fill="#F6876F"/>
<path d="M123.441 103.642C123.144 103.642 122.881 103.428 122.831 103.125C122.774 102.787 123.001 102.468 123.339 102.412L125.465 102.055L122.536 94.2526C122.416 93.9324 122.578 93.5749 122.897 93.4543C123.217 93.3358 123.575 93.4969 123.694 93.8171L127.154 103.026L123.544 103.632L123.441 103.642Z" fill="#F25349"/>
<path d="M131.069 93.3171C131.069 94.6819 131.772 95.7878 132.639 95.7878C133.507 95.7878 134.209 94.6819 134.209 93.3171C134.209 91.9534 133.507 90.8474 132.639 90.8474C131.772 90.8474 131.069 91.9534 131.069 93.3171Z" fill="#3E3358"/>
<path d="M113.711 93.3171C113.711 94.6819 114.414 95.7878 115.282 95.7878C116.149 95.7878 116.852 94.6819 116.852 93.3171C116.852 91.9534 116.149 90.8474 115.282 90.8474C114.414 90.8474 113.711 91.9534 113.711 93.3171Z" fill="#3E3358"/>
<path d="M137.256 86.8393C135.993 86.593 133.44 86.1866 130.722 86.2822C130.006 86.3071 129.432 86.8476 129.532 87.4162L129.534 87.4308C129.613 87.886 130.099 88.1916 130.672 88.148C132.525 88.0087 137.372 88.0388 139.629 88.7103C139.692 88.3839 139.473 88.0368 139.155 87.7332C138.672 87.2728 137.994 86.9828 137.256 86.8393Z" fill="#3E3358"/>
<path d="M112.01 87.1356C113.269 86.8726 115.816 86.4319 118.536 86.4901C119.252 86.5057 119.833 87.0368 119.742 87.6075L119.739 87.622C119.667 88.0783 119.184 88.3902 118.611 88.3548C116.756 88.2405 111.909 88.3372 109.663 89.0398C109.595 88.7134 109.81 88.3642 110.123 88.0565C110.6 87.5898 111.274 87.2905 112.01 87.1356Z" fill="#3E3358"/>
<path d="M131.069 107.329C130.61 109.499 129.085 113.492 123.945 113.492C118.793 113.492 117.349 109.843 116.852 107.329H131.069Z" fill="white"/>
<path d="M124.018 117.225C125.502 117.225 126.811 116.426 126.866 116.391C127.151 116.215 127.24 115.842 127.064 115.556C126.887 115.271 126.515 115.183 126.229 115.358C126.218 115.365 125.15 116.01 124.018 116.01C122.794 116.01 121.697 115.362 121.687 115.355C121.399 115.183 121.026 115.276 120.853 115.563C120.681 115.849 120.772 116.221 121.059 116.395C121.115 116.429 122.448 117.225 124.018 117.225Z" fill="#F25349"/>
<path d="M144.303 95.0384C144.153 95.1631 144.011 95.1195 143.876 94.8763C141.77 91.1644 143.749 83.7585 137.518 80.9188C132.772 78.7536 131.068 74.3121 131.068 74.3121C129.983 76.1696 127.156 77.8732 127.156 77.8732C127.156 77.8732 119.988 82.1204 112.539 84.9902C110.326 85.8436 108.749 86.7094 107.644 87.4526L107.777 87.49C107.777 87.49 105.715 90.8401 107.223 96.0487C108.733 101.253 106.792 109.844 103.442 111.826C103.501 111.68 106.015 105.74 104.594 100.895C103.776 98.1162 103.784 93.6954 103.007 91.047C102.149 90.4555 100.164 89.4577 99.4921 89.0586C99.2998 86.7801 99.1626 84.5339 99.0649 82.5039C98.7926 76.7777 102.221 71.5161 107.583 69.458C115.307 66.4883 127.037 64.1371 138.15 70.4382C142.253 72.7655 144.829 77.0739 144.924 81.7909C144.991 85.3925 144.897 90.1032 144.303 95.0384Z" fill="#3E3358"/>
<path d="M103.007 91.047C103.007 91.047 98.6533 85.7635 96.0838 89.573C93.5143 93.3826 97.3083 105.062 103.599 102.314L103.007 91.047Z" fill="#F6876F"/>
<path d="M103.183 102.504C103.633 103.356 103.788 104.368 103.537 105.373C102.994 107.545 100.785 108.87 98.6139 108.326C96.4425 107.784 95.1183 105.575 95.6609 103.404C95.9737 102.152 96.8396 101.185 97.932 100.692C98.4798 100.446 99.0837 100.318 99.7053 100.333C99.8134 100.101 99.8685 99.8499 99.751 99.5527C98.9569 99.5277 98.1856 99.7003 97.4944 100.036C96.2461 100.636 95.2648 101.769 94.9031 103.214C94.2555 105.805 95.8334 108.437 98.4237 109.085C101.013 109.732 103.647 108.154 104.295 105.564C104.574 104.447 104.434 103.328 103.982 102.359C103.715 102.408 103.449 102.457 103.183 102.504Z" fill="white"/>
<path d="M102.064 98.4113C101.832 98.4113 101.619 98.2575 101.552 98.0226C100.577 94.5488 96.9787 93.1404 96.9424 93.1269C96.668 93.0219 96.5308 92.7153 96.6347 92.4409C96.7386 92.1664 97.0453 92.0282 97.3186 92.1321C97.487 92.1956 101.454 93.7349 102.576 97.7357C102.655 98.0184 102.491 98.3116 102.208 98.3906L102.064 98.4113Z" fill="#F25349"/>
<path d="M98.431 96.6609C98.3322 96.6609 98.2335 96.6339 98.1441 96.5757C97.8977 96.4167 97.826 96.0882 97.985 95.8408C98.011 95.8003 98.6482 94.8295 99.9797 94.2329C100.247 94.1123 100.563 94.2329 100.682 94.501C100.802 94.7692 100.682 95.0831 100.414 95.2037C99.3841 95.6641 98.8831 96.4094 98.879 96.4167C98.7771 96.5747 98.6066 96.6609 98.431 96.6609Z" fill="#F25349"/>
<path d="M333.64 205.767C323.507 213.04 307.654 218.03 307.654 218.03L304.408 206.356L301.877 197.248L300.089 190.827L281.92 190.815C282.904 194.22 283.92 197.699 284.941 201.124C286.252 205.542 287.56 209.87 288.803 213.859C290.555 219.474 292.174 224.411 293.477 227.938C293.782 228.761 294.135 229.658 294.531 230.615C296.959 237.174 298.921 244.289 308.19 239.825C316.35 235.896 327.416 230.447 332.944 226.831L333.64 205.767Z" fill="#F6876F"/>
<path d="M284.941 201.124C286.253 205.541 287.559 209.87 288.803 213.858C296.219 213.073 301.354 209.397 304.409 206.356L301.878 197.248L284.941 201.124Z" fill="#F25349"/>
<path d="M281.084 137.404C281.084 137.404 300.038 182.607 308.19 197.253C308.19 197.253 296.766 206.967 285.638 207.231C285.638 207.231 279.226 157.601 281.084 137.404Z" fill="#4C3498"/>
<path d="M236.705 321.085C236.897 317.921 237.075 314.909 237.24 312.118C237.911 300.708 238.343 292.919 238.343 292.919L233.873 292.72L231.354 292.605L200.973 291.255C200.973 291.255 200.42 299.966 199.768 312.758C199.634 315.375 199.497 318.165 199.359 321.085H236.705Z" fill="#765CB4"/>
<path d="M233.873 292.72L238.343 292.919C238.343 292.919 237.911 300.708 237.24 312.118C225.567 313.092 212.823 313.488 199.768 312.758C200.42 299.966 200.973 291.255 200.973 291.255L231.355 292.605L233.873 292.72Z" fill="#583C9F"/>
<path d="M232.278 321.085C232.982 308.895 233.561 298.453 233.875 292.721L231.357 292.606C231.041 298.366 230.461 308.855 229.754 321.085H232.278Z" fill="#583C9F"/>
<path d="M246.497 321.085H283.843C283.706 318.165 283.567 315.375 283.434 312.758C282.784 299.966 282.23 291.255 282.23 291.255L251.848 292.605L249.329 292.72L244.86 292.919C244.86 292.919 245.291 300.708 245.963 312.118C246.127 314.909 246.307 317.921 246.497 321.085Z" fill="#765CB4"/>
<path d="M249.329 292.72L244.86 292.919C244.86 292.919 245.291 300.708 245.963 312.118C257.636 313.092 270.38 313.488 283.434 312.758C282.784 299.966 282.23 291.255 282.23 291.255L251.848 292.605L249.329 292.72Z" fill="#583C9F"/>
<path d="M253.449 321.085C252.742 308.855 252.162 298.366 251.847 292.606L249.327 292.721C249.641 298.453 250.219 308.895 250.925 321.085H253.449Z" fill="#583C9F"/>
<path d="M194.379 269.593C194.375 270.219 194.379 270.837 194.379 271.445C194.393 282.555 194.447 291.166 194.502 295.394C205.235 298.301 215.966 300.18 226.702 301.048C227.192 301.084 227.672 301.121 228.16 301.158C228.421 301.175 228.681 301.194 228.942 301.209C229.518 301.249 230.099 301.286 230.669 301.313C231.31 301.354 231.945 301.385 232.589 301.419C239.893 301.756 247.196 301.624 254.506 301.026C255.981 300.902 257.449 300.76 258.924 300.601C259.021 300.591 259.112 300.582 259.208 300.573C259.583 300.531 259.959 300.485 260.338 300.44C260.567 300.413 260.794 300.385 261.018 300.357C269.515 299.344 278.012 297.684 286.513 295.394C286.536 293.474 286.545 290.627 286.545 287.039C286.545 286.372 286.545 285.686 286.541 284.969V284.964C286.536 279.831 286.505 273.442 286.45 266.219C286.444 265.603 286.44 264.981 286.435 264.351C286.394 259.543 286.344 254.392 286.28 249.021C286.271 248.399 286.267 247.778 286.257 247.152C286.189 241.644 286.107 235.922 286.01 230.113C285.951 226.565 285.887 222.987 285.814 219.403C285.741 215.775 285.663 212.141 285.576 208.53C285.559 207.744 285.54 206.958 285.516 206.171C284.686 172.024 283.245 140.638 280.864 137.137C279.214 134.715 275.434 131.868 270.982 128.997C270.439 128.649 269.885 128.297 269.323 127.946C267.426 126.762 251.955 121.505 249.989 120.35L233.636 119.206C233.535 119.267 217.899 124.541 217.799 124.596C217.127 124.979 216.446 125.368 215.774 125.757C209.984 129.097 204.27 132.617 200.979 135.647C200.499 136.086 200.07 136.516 199.704 136.936C199.412 137.269 199.151 137.594 198.941 137.914C198.744 138.202 198.552 138.687 198.369 139.349C196.39 146.539 195.353 174.794 194.836 205.536C194.8 207.74 194.767 209.957 194.735 212.177C194.722 213.151 194.708 214.129 194.695 215.107C194.68 215.779 194.672 216.454 194.667 217.127C194.662 217.466 194.657 217.798 194.653 218.137C194.63 219.81 194.612 221.478 194.598 223.137C194.585 224.368 194.571 225.591 194.557 226.817C194.411 242.302 194.365 257.338 194.379 269.593Z" fill="#583C9F"/>
<path d="M165.135 313.5C164.733 317.865 170.049 315.498 168.545 306.653C167.045 297.809 171.305 289.802 173.143 290.058C174.985 290.318 171.62 299.715 173.257 303.103C174.888 306.489 177 299.907 179.103 295.917C181.283 291.771 181.155 282.726 180.163 276.272C179.171 269.814 190.872 230.603 190.931 219.24L192.357 214.422L197.577 196.785L205.749 169.164C205.749 169.164 200.854 148.259 192.599 150.056C192.599 150.056 188.23 164.617 183.559 181.039C182.768 183.828 181.969 186.671 181.178 189.504C177.851 201.411 174.724 213.166 173.271 220.14C169.431 238.556 169.134 276.834 169.134 276.834C169.134 276.834 162.361 290.899 162.201 297.155C162.032 303.828 165.532 309.135 165.135 313.5Z" fill="#F6876F"/>
<path d="M181.178 189.504L192.357 214.422L197.577 196.785L183.559 181.039C182.768 183.828 181.969 186.671 181.178 189.504Z" fill="#F25349"/>
<path d="M180.623 182.081C185.528 190.492 190.515 198.856 195.483 207.234C197.119 201.754 198.814 196.492 200.405 191.657L200.419 191.62C201.054 189.688 201.676 187.823 202.27 186.04L202.302 185.948C202.508 185.322 202.709 184.706 202.915 184.101V184.098C205.287 176.926 207.124 171.227 207.649 167.904C209.067 158.959 205.204 141.436 199.765 137.979C199.624 138.295 199.194 137.321 198.939 137.916C197.984 140.124 193.742 145.577 191.643 150.887C191.374 151.564 191.099 152.267 190.817 152.985C187.776 160.797 184.061 170.956 180.623 182.081Z" fill="#583C9F"/>
<path d="M241.09 135.56C248.171 135.56 253.164 129.097 253.373 128.823C253.671 128.431 253.615 127.855 253.249 127.537C252.882 127.218 252.344 127.278 252.046 127.669C251.982 127.755 247.334 133.731 241.09 133.731C234.92 133.731 231.157 126.967 231.119 126.898C230.881 126.463 230.358 126.315 229.951 126.569C229.544 126.822 229.405 127.38 229.641 127.817C229.813 128.133 233.924 135.56 241.09 135.56Z" fill="#4C3498"/>
<path d="M271.032 197.469C271.163 197.469 271.296 197.437 271.42 197.369C271.844 197.139 272.015 196.585 271.8 196.13L268.712 189.604C268.496 189.15 267.978 188.968 267.553 189.198C267.129 189.428 266.958 189.983 267.173 190.436L270.262 196.964C270.413 197.284 270.717 197.469 271.032 197.469Z" fill="#4C3498"/>
<path d="M277.468 192.122C277.579 192.196 277.708 192.243 277.847 192.258C278.321 192.302 278.739 191.928 278.782 191.42L279.387 184.135C279.429 183.628 279.079 183.18 278.605 183.135C278.131 183.09 277.712 183.465 277.671 183.971L277.066 191.258C277.034 191.616 277.201 191.944 277.468 192.122Z" fill="#4C3498"/>
<path d="M260.875 180.825C261.29 180.825 261.655 180.506 261.726 180.054L262.841 172.837C262.918 172.335 262.601 171.86 262.131 171.777C261.659 171.694 261.218 172.033 261.139 172.536L260.024 179.753C259.947 180.255 260.265 180.729 260.735 180.812L260.875 180.825Z" fill="#4C3498"/>
<path d="M233.131 183.511C233.28 183.511 233.431 183.469 233.568 183.382C233.978 183.123 234.114 182.558 233.871 182.12L230.388 175.826C230.145 175.388 229.616 175.242 229.207 175.502C228.797 175.762 228.662 176.326 228.904 176.765L232.389 183.06C232.549 183.35 232.836 183.511 233.131 183.511Z" fill="#4C3498"/>
<path d="M267.215 155.299C267.375 155.299 267.538 155.253 267.681 155.152L273.425 151.179C273.825 150.903 273.94 150.333 273.681 149.905C273.422 149.478 272.889 149.355 272.489 149.631L266.746 153.604C266.347 153.881 266.233 154.45 266.491 154.877C266.656 155.151 266.933 155.299 267.215 155.299Z" fill="#4C3498"/>
<path d="M241.632 213.939C241.763 213.939 241.896 213.907 242.021 213.839C242.445 213.61 242.615 213.054 242.401 212.6L239.311 206.074C239.096 205.62 238.579 205.439 238.153 205.668C237.729 205.897 237.559 206.452 237.774 206.906L240.863 213.433C241.014 213.754 241.317 213.939 241.632 213.939Z" fill="#4C3498"/>
<path d="M255.201 160.21C255.489 160.21 255.769 160.057 255.934 159.777C256.186 159.346 256.064 158.776 255.66 158.506L249.863 154.625C249.459 154.356 248.927 154.485 248.675 154.917C248.422 155.348 248.545 155.918 248.948 156.188L254.745 160.069C254.887 160.164 255.045 160.21 255.201 160.21Z" fill="#4C3498"/>
<path d="M268.989 133.071C268.976 133.25 269.011 133.424 269.088 133.569C269.22 133.839 269.481 134.032 269.788 134.055C270.262 134.091 270.673 133.706 270.706 133.199L270.981 128.999C270.438 128.652 269.886 128.299 269.322 127.948L268.989 133.071Z" fill="#4C3498"/>
<path d="M276.717 173.116C277.004 173.116 277.285 172.964 277.448 172.684C277.701 172.253 277.579 171.683 277.175 171.413L271.378 167.532C270.974 167.262 270.443 167.391 270.19 167.824C269.937 168.255 270.06 168.825 270.463 169.095L276.26 172.976C276.402 173.071 276.56 173.116 276.717 173.116Z" fill="#4C3498"/>
<path d="M230.487 141.267C230.65 141.267 230.814 141.219 230.961 141.115C231.358 140.836 231.467 140.264 231.206 139.839L227.899 134.473C227.639 134.048 227.103 133.93 226.706 134.21C226.309 134.491 226.199 135.063 226.461 135.488L229.766 140.853C229.932 141.122 230.207 141.267 230.487 141.267Z" fill="#4C3498"/>
<path d="M227.523 233.95C227.75 233.95 227.975 233.857 228.145 233.667L232.881 228.391C233.211 228.023 233.199 227.44 232.856 227.088C232.513 226.734 231.968 226.747 231.638 227.114L226.902 232.391C226.572 232.758 226.583 233.342 226.926 233.693C227.094 233.866 227.308 233.95 227.523 233.95Z" fill="#4C3498"/>
<path d="M244.929 232.855C245.155 232.855 245.381 232.759 245.55 232.57L250.288 227.294C250.617 226.927 250.606 226.343 250.263 225.99C249.918 225.638 249.374 225.65 249.045 226.018L244.308 231.294C243.978 231.66 243.989 232.244 244.332 232.597C244.5 232.769 244.714 232.855 244.929 232.855Z" fill="#4C3498"/>
<path d="M257.443 268.521C257.522 268.295 257.518 268.035 257.412 267.799L254.456 261.203C254.249 260.745 253.734 260.55 253.306 260.771C252.877 260.991 252.696 261.541 252.902 262L255.858 268.597C256.065 269.056 256.579 269.248 257.009 269.029C257.218 268.922 257.366 268.736 257.443 268.521Z" fill="#4C3498"/>
<path d="M207.494 290.285C207.573 290.059 207.569 289.799 207.464 289.563L204.506 282.968C204.301 282.507 203.787 282.315 203.357 282.535C202.927 282.756 202.747 283.304 202.953 283.764L205.91 290.36C206.115 290.819 206.63 291.013 207.06 290.793C207.269 290.685 207.418 290.5 207.494 290.285Z" fill="#4C3498"/>
<path d="M228.943 301.21C229.519 301.251 230.097 301.288 230.668 301.315L231.271 297.206C231.344 296.704 231.024 296.232 230.554 296.155C230.083 296.077 229.644 296.42 229.571 296.922L228.943 301.21Z" fill="#4C3498"/>
<path d="M222.063 288.792C222.249 288.653 222.383 288.437 222.42 288.178L223.479 280.952C223.553 280.449 223.231 279.978 222.761 279.899C222.29 279.82 221.851 280.163 221.777 280.667L220.718 287.894C220.644 288.397 220.966 288.868 221.436 288.948C221.665 288.986 221.887 288.924 222.063 288.792Z" fill="#4C3498"/>
<path d="M263.648 228.366C263.796 228.366 263.945 228.326 264.08 228.243C264.493 227.988 264.633 227.424 264.394 226.983L260.968 220.653C260.73 220.212 260.203 220.062 259.79 220.317C259.379 220.571 259.237 221.135 259.476 221.576L262.903 227.907C263.062 228.202 263.351 228.366 263.648 228.366Z" fill="#4C3498"/>
<path d="M253.589 212.543C253.901 212.543 254.202 212.361 254.355 212.043L257.491 205.542C257.709 205.091 257.543 204.535 257.12 204.301C256.699 204.066 256.178 204.245 255.959 204.698L252.823 211.199C252.605 211.65 252.772 212.207 253.194 212.44C253.321 212.511 253.456 212.543 253.589 212.543Z" fill="#4C3498"/>
<path d="M280.836 211.59C280.925 211.703 281.04 211.791 281.16 211.846C281.45 211.973 281.792 211.928 282.049 211.699L285.574 208.531C285.558 207.746 285.54 206.96 285.518 206.173L280.938 210.288C280.575 210.616 280.528 211.197 280.836 211.59Z" fill="#4C3498"/>
<path d="M253.634 143.576C253.945 143.576 254.247 143.394 254.401 143.077L257.537 136.576C257.755 136.124 257.588 135.568 257.165 135.335C256.744 135.101 256.223 135.279 256.005 135.731L252.869 142.232C252.649 142.684 252.817 143.24 253.24 143.474C253.365 143.542 253.501 143.576 253.634 143.576Z" fill="#4C3498"/>
<path d="M233.536 167.391L233.701 167.376C234.168 167.278 234.474 166.795 234.383 166.296L233.086 159.113C232.997 158.613 232.544 158.288 232.077 158.382C231.609 158.479 231.304 158.963 231.394 159.462L232.691 166.645C232.77 167.086 233.132 167.391 233.536 167.391Z" fill="#4C3498"/>
<path d="M244.725 173.697L244.89 173.681C245.358 173.584 245.663 173.101 245.573 172.602L244.276 165.419C244.186 164.918 243.732 164.594 243.267 164.69C242.799 164.785 242.493 165.269 242.584 165.769L243.881 172.951C243.96 173.392 244.322 173.697 244.725 173.697Z" fill="#4C3498"/>
<path d="M236.71 150.001C236.994 150.001 237.274 149.851 237.438 149.574L241.103 143.399C241.358 142.969 241.239 142.399 240.837 142.127C240.434 141.853 239.904 141.981 239.648 142.411L235.983 148.586C235.727 149.016 235.846 149.586 236.248 149.858C236.392 149.956 236.552 150.001 236.71 150.001Z" fill="#4C3498"/>
<path d="M270.331 213.684C270.567 213.416 270.638 213.01 270.481 212.657L267.535 206.056C267.329 205.597 266.816 205.402 266.386 205.621C265.955 205.841 265.773 206.391 265.98 206.849L268.925 213.452C269.13 213.91 269.644 214.105 270.073 213.886C270.174 213.835 270.261 213.766 270.331 213.684Z" fill="#4C3498"/>
<path d="M248.159 194.532C248.503 194.532 248.829 194.309 248.963 193.945L251.454 187.133C251.628 186.659 251.409 186.125 250.965 185.94C250.523 185.754 250.023 185.988 249.849 186.462L247.358 193.274C247.184 193.748 247.402 194.281 247.845 194.467C247.949 194.511 248.054 194.532 248.159 194.532Z" fill="#4C3498"/>
<path d="M220.774 236.603C220.905 236.603 221.038 236.572 221.163 236.504C221.588 236.274 221.757 235.72 221.542 235.265L218.454 228.738C218.24 228.284 217.721 228.103 217.296 228.333C216.871 228.563 216.702 229.117 216.916 229.572L220.005 236.098C220.157 236.419 220.46 236.603 220.774 236.603Z" fill="#4C3498"/>
<path d="M266.16 283.51C266.161 283.651 266.193 283.793 266.258 283.926C266.476 284.377 266.997 284.554 267.419 284.319L273.491 280.954C273.914 280.722 274.08 280.164 273.861 279.712C273.642 279.26 273.121 279.083 272.698 279.318L266.627 282.683C266.327 282.847 266.157 283.175 266.16 283.51Z" fill="#4C3498"/>
<path d="M282.647 287.695C282.647 287.836 282.676 287.978 282.742 288.111C282.959 288.563 283.481 288.737 283.904 288.504L286.544 287.041C286.544 286.374 286.544 285.688 286.54 284.97L283.113 286.868C282.814 287.032 282.643 287.36 282.647 287.695Z" fill="#4C3498"/>
<path d="M257.13 295.831L259.207 300.575C259.583 300.533 259.96 300.487 260.34 300.442C260.567 300.415 260.792 300.388 261.019 300.359L258.691 295.049C258.49 294.586 257.976 294.386 257.544 294.605C257.113 294.82 256.926 295.368 257.13 295.831Z" fill="#4C3498"/>
<path d="M209.567 219.96C209.982 219.96 210.347 219.64 210.416 219.188L211.532 211.971C211.61 211.469 211.291 210.995 210.822 210.911C210.351 210.829 209.909 211.169 209.831 211.671L208.716 218.888C208.638 219.391 208.956 219.865 209.425 219.948L209.567 219.96Z" fill="#4C3498"/>
<path d="M208.856 166.709C209.005 166.709 209.156 166.668 209.294 166.58C209.703 166.322 209.839 165.756 209.596 165.318L206.112 159.025C205.87 158.586 205.342 158.441 204.932 158.701C204.523 158.959 204.386 159.525 204.63 159.963L208.113 166.257C208.274 166.548 208.561 166.709 208.856 166.709Z" fill="#4C3498"/>
<path d="M220.057 192.293C220.218 192.293 220.379 192.245 220.525 192.145L226.268 188.173C226.667 187.896 226.782 187.325 226.523 186.898C226.264 186.471 225.731 186.349 225.332 186.625L219.589 190.598C219.189 190.874 219.075 191.444 219.332 191.872C219.498 192.144 219.774 192.293 220.057 192.293Z" fill="#4C3498"/>
<path d="M280.863 235.201C280.994 235.201 281.127 235.168 281.252 235.101C281.676 234.871 281.846 234.317 281.631 233.863L278.543 227.336C278.328 226.882 277.81 226.7 277.385 226.931C276.96 227.16 276.79 227.714 277.005 228.169L280.094 234.695C280.244 235.017 280.548 235.201 280.863 235.201Z" fill="#4C3498"/>
<path d="M210.273 202.207C210.56 202.207 210.84 202.054 211.003 201.775C211.256 201.342 211.133 200.775 210.731 200.504L204.934 196.622C204.53 196.354 203.999 196.483 203.746 196.915C203.494 197.347 203.616 197.915 204.018 198.185L209.815 202.067C209.958 202.161 210.116 202.207 210.273 202.207Z" fill="#4C3498"/>
<path d="M224.17 211.439C224.381 211.647 224.684 211.739 224.982 211.652C225.441 211.518 225.711 211.012 225.588 210.52L223.792 203.463C223.667 202.972 223.195 202.681 222.735 202.814C222.275 202.948 222.005 203.455 222.129 203.946L223.923 211.005C223.968 211.177 224.055 211.326 224.17 211.439Z" fill="#4C3498"/>
<path d="M199.704 136.938L201.204 139.369C201.37 139.634 201.644 139.781 201.926 139.781C202.088 139.781 202.25 139.735 202.396 139.63C202.794 139.351 202.904 138.78 202.643 138.355L200.977 135.649C200.499 136.088 200.071 136.518 199.704 136.938Z" fill="#4C3498"/>
<path d="M193.148 152.985L194.741 155.572C194.909 155.842 195.182 155.989 195.464 155.989C195.627 155.989 195.789 155.938 195.939 155.837C196.336 155.554 196.443 154.982 196.182 154.558L193.921 150.887C193.67 151.564 193.413 152.267 193.148 152.985Z" fill="#4C3498"/>
<path d="M267.691 257.988C267.917 257.988 268.143 257.895 268.312 257.705L273.048 252.429C273.379 252.061 273.367 251.478 273.024 251.126C272.681 250.772 272.134 250.785 271.805 251.152L267.068 256.428C266.739 256.796 266.75 257.38 267.094 257.731C267.261 257.903 267.476 257.988 267.691 257.988Z" fill="#4C3498"/>
<path d="M236.174 276.437C236.401 276.437 236.626 276.341 236.796 276.152L241.532 270.876C241.862 270.508 241.852 269.926 241.509 269.573C241.166 269.219 240.619 269.232 240.289 269.6L235.553 274.877C235.223 275.244 235.235 275.827 235.578 276.178C235.745 276.351 235.96 276.437 236.174 276.437Z" fill="#4C3498"/>
<path d="M227.416 269.109C227.558 268.921 227.631 268.673 227.6 268.414L226.746 261.155C226.686 260.651 226.256 260.292 225.784 260.357C225.311 260.419 224.977 260.881 225.037 261.386L225.891 268.643C225.949 269.149 226.381 269.507 226.854 269.443C227.083 269.412 227.281 269.288 227.416 269.109Z" fill="#4C3498"/>
<path d="M245.367 289.564C245.593 289.564 245.818 289.469 245.988 289.28L250.724 284.004C251.054 283.636 251.042 283.054 250.699 282.702C250.356 282.347 249.811 282.361 249.481 282.728L244.744 288.004C244.415 288.372 244.425 288.954 244.769 289.307C244.936 289.479 245.152 289.564 245.367 289.564Z" fill="#4C3498"/>
<path d="M194.379 269.594C194.375 270.221 194.379 270.839 194.379 271.447L199.725 271.926C200.2 271.973 200.619 271.592 200.657 271.085C200.7 270.578 200.345 270.134 199.87 270.088L194.379 269.594Z" fill="#4C3498"/>
<path d="M256.992 246.893C257.219 246.893 257.444 246.798 257.614 246.609L262.349 241.332C262.68 240.966 262.668 240.382 262.325 240.03C261.981 239.676 261.437 239.689 261.107 240.057L256.369 245.333C256.04 245.7 256.052 246.284 256.395 246.636C256.562 246.808 256.777 246.893 256.992 246.893Z" fill="#4C3498"/>
<path d="M234.204 244.6C234.218 244.841 234.322 245.077 234.509 245.245L239.744 249.952C240.109 250.28 240.651 250.23 240.958 249.84C241.265 249.45 241.217 248.869 240.853 248.542L235.618 243.833C235.255 243.506 234.711 243.557 234.404 243.946C234.255 244.136 234.189 244.372 234.204 244.6Z" fill="#4C3498"/>
<path d="M209.262 270.496C209.409 270.496 209.558 270.455 209.694 270.371C210.105 270.115 210.246 269.552 210.008 269.112L206.582 262.781C206.343 262.34 205.817 262.189 205.404 262.445C204.991 262.7 204.851 263.264 205.09 263.704L208.516 270.035C208.675 270.33 208.965 270.496 209.262 270.496Z" fill="#4C3498"/>
<path d="M203.331 251.678C203.643 251.678 203.945 251.496 204.097 251.179L207.233 244.678C207.452 244.226 207.285 243.67 206.863 243.436C206.441 243.202 205.921 243.381 205.701 243.832L202.566 250.333C202.348 250.786 202.514 251.342 202.937 251.576C203.063 251.644 203.198 251.678 203.331 251.678Z" fill="#4C3498"/>
<path d="M212.684 177.87C212.997 177.87 213.297 177.689 213.451 177.371L216.586 170.87C216.806 170.417 216.638 169.861 216.216 169.629C215.794 169.395 215.273 169.572 215.055 170.025L211.919 176.525C211.701 176.978 211.867 177.534 212.29 177.768C212.416 177.836 212.551 177.87 212.684 177.87Z" fill="#4C3498"/>
<path d="M209.26 150.59L209.425 150.573C209.892 150.477 210.198 149.993 210.107 149.493L208.811 142.312C208.721 141.811 208.268 141.485 207.801 141.581C207.334 141.678 207.029 142.161 207.118 142.661L208.415 149.842C208.495 150.284 208.856 150.59 209.26 150.59Z" fill="#4C3498"/>
<path d="M193.511 175.373L193.676 175.356C194.143 175.26 194.448 174.776 194.359 174.276L193.062 167.095C192.971 166.595 192.518 166.269 192.053 166.364C191.585 166.462 191.279 166.945 191.369 167.444L192.666 174.626C192.746 175.067 193.106 175.373 193.511 175.373Z" fill="#4C3498"/>
<path d="M220.45 156.896L220.614 156.879C221.082 156.783 221.387 156.298 221.297 155.799L220 148.618C219.91 148.117 219.457 147.793 218.991 147.887C218.523 147.984 218.217 148.467 218.308 148.967L219.605 156.149C219.685 156.59 220.046 156.896 220.45 156.896Z" fill="#4C3498"/>
<path d="M215.314 131.878C215.481 131.92 215.643 131.906 215.793 131.851C216.062 131.75 216.281 131.508 216.349 131.193L217.797 124.597C217.127 124.981 216.447 125.37 215.771 125.759L214.674 130.768C214.562 131.266 214.849 131.759 215.314 131.878Z" fill="#4C3498"/>
<path d="M195.598 186.477C195.883 186.477 196.161 186.325 196.326 186.05L199.992 179.874C200.246 179.444 200.128 178.874 199.726 178.601C199.322 178.329 198.791 178.457 198.535 178.886L194.87 185.061C194.616 185.491 194.734 186.06 195.136 186.334C195.28 186.432 195.44 186.477 195.598 186.477Z" fill="#4C3498"/>
<path d="M220.074 252.82C220.309 252.551 220.38 252.144 220.223 251.792L217.277 245.191C217.073 244.732 216.558 244.537 216.129 244.756C215.697 244.975 215.517 245.525 215.722 245.985L218.667 252.586C218.872 253.046 219.386 253.24 219.816 253.021C219.916 252.97 220.003 252.901 220.074 252.82Z" fill="#4C3498"/>
<path d="M280.694 265.225L286.451 266.221C286.447 265.605 286.441 264.983 286.433 264.353L280.971 263.401C280.501 263.323 280.058 263.662 279.984 264.165C279.907 264.667 280.224 265.142 280.694 265.225Z" fill="#4C3498"/>
<path d="M282.446 248.36L286.279 249.022C286.271 248.401 286.267 247.78 286.257 247.154L282.724 246.541C282.254 246.459 281.814 246.802 281.737 247.304C281.66 247.808 281.976 248.278 282.446 248.36Z" fill="#4C3498"/>
<path d="M197.901 233.666C198.246 233.666 198.572 233.444 198.704 233.08L201.196 226.269C201.37 225.795 201.152 225.259 200.709 225.074C200.265 224.888 199.765 225.122 199.591 225.596L197.1 232.408C196.926 232.882 197.145 233.417 197.588 233.603C197.691 233.646 197.797 233.666 197.901 233.666Z" fill="#4C3498"/>
<path d="M194.735 212.177C196.354 205.491 198.388 198.059 200.403 191.656L200.417 191.619C201.038 189.64 201.66 187.761 202.268 186.039L202.299 185.947C202.487 185.402 202.68 184.878 202.867 184.365L202.912 184.101V184.096C202.912 183.789 202.72 183.501 202.415 183.387C202.016 183.245 201.578 183.447 201.435 183.843C199.37 189.475 196.929 197.584 194.836 205.536C194.8 207.74 194.767 209.957 194.735 212.177Z" fill="#4C3498"/>
<path d="M219.448 83.0787C219.448 83.0787 213.446 76.4637 215.711 68.7699C217.975 61.076 224.172 61.1602 224.172 61.1602C224.172 61.1602 227.787 52.9757 233.944 52.7065C240.1 52.4362 245.903 41.5024 251.507 44.4711C257.108 47.4418 250.9 53.9205 250.9 53.9205C250.9 53.9205 260.498 43.7975 263.663 46.7661C266.828 49.7358 259.269 57.701 259.269 57.701C259.269 57.701 267.333 52.0308 269.983 54.1908C272.632 56.3507 263.663 65.6651 263.663 65.6651C263.663 65.6651 269.466 76.127 263.626 80.8179L219.448 83.0787Z" fill="#3E3358"/>
<path d="M261.376 85.2927C261.376 85.2927 265.214 80.1766 268.067 84.4071C270.921 88.6386 266.887 101.135 259.9 98.085L261.376 85.2927Z" fill="#F25349"/>
<path d="M261.426 94.2224C261.684 94.2224 261.921 94.052 261.995 93.7911C263.078 89.9338 267.073 88.3694 267.114 88.3538C267.418 88.2374 267.572 87.8965 267.456 87.5929C267.341 87.2884 267 87.1346 266.696 87.2499C266.509 87.3206 262.104 89.0294 260.858 93.473C260.769 93.7869 260.953 94.1123 261.266 94.2006L261.426 94.2224Z" fill="#E43342"/>
<path d="M265.461 92.2798C265.571 92.2798 265.681 92.2486 265.779 92.1852C266.054 92.0085 266.133 91.6436 265.956 91.3692C265.927 91.3235 265.22 90.2446 263.74 89.5824C263.445 89.4494 263.094 89.5824 262.961 89.8807C262.827 90.178 262.961 90.5273 263.259 90.6603C264.402 91.1728 264.958 92.0001 264.964 92.0085C265.077 92.1831 265.267 92.2798 265.461 92.2798Z" fill="#E43342"/>
<path d="M221.829 85.2927C221.829 85.2927 217.992 80.1766 215.138 84.4071C212.284 88.6386 216.318 101.135 223.304 98.085L221.829 85.2927Z" fill="#F25349"/>
<path d="M221.779 94.2224C221.522 94.2224 221.284 94.052 221.211 93.7911C220.129 89.9338 216.132 88.3694 216.091 88.3538C215.787 88.2374 215.634 87.8965 215.748 87.5929C215.865 87.2884 216.205 87.1346 216.509 87.2499C216.696 87.3206 221.101 89.0294 222.348 93.473C222.436 93.7869 222.253 94.1123 221.938 94.2006L221.779 94.2224Z" fill="#E43342"/>
<path d="M217.744 92.2798C217.635 92.2798 217.524 92.2486 217.425 92.1852C217.152 92.0085 217.073 91.6436 217.248 91.3692C217.278 91.3235 217.985 90.2446 219.464 89.5824C219.761 89.4494 220.111 89.5824 220.244 89.8807C220.378 90.178 220.244 90.5273 219.947 90.6603C218.802 91.1728 218.246 92.0001 218.241 92.0085C218.129 92.1831 217.938 92.2798 217.744 92.2798Z" fill="#E43342"/>
<path d="M232.156 108.684V121.111C232.156 121.111 235.863 127.441 240.874 127.871C245.882 128.309 250.331 122.422 250.331 122.422V109.557L232.156 108.684Z" fill="#F6876F"/>
<path d="M232.156 108.684V114.198C235.519 117.93 241.492 118.862 250.331 117.557V109.557L232.156 108.684Z" fill="#F25349"/>
<path d="M219.056 76.7694C219.283 81.5996 219.743 87.6397 220.666 92.4648V92.4793L220.675 92.5251L220.68 92.5344C220.907 93.7131 221.162 94.8212 221.44 95.819C221.608 96.4032 221.788 97.0165 221.993 97.6422C224.939 106.884 231.763 120.259 248.916 114.14C256.139 111.565 259.901 104.105 261.817 96.0134C261.928 95.5311 262.035 95.054 262.129 94.5946C262.193 94.2879 262.254 93.9917 262.309 93.6986L262.392 93.2672L262.42 93.1092L262.425 93.0822C263.557 86.8602 263.729 80.5695 263.645 76.074C263.557 71.4901 261.051 67.296 257.062 65.0373C246.257 58.9088 234.848 61.1955 227.337 64.081C222.122 66.0809 218.787 71.198 219.056 76.7694Z" fill="#F6876F"/>
<path d="M241.984 99.8084C254.227 98.1567 252.301 104.75 252.301 104.75C250.943 105.989 249.699 106.893 248.864 107.362C246.191 108.85 243.56 109.417 241.654 109.324C239.776 109.245 239.261 109.63 234.51 107.06C233.67 106.61 232.821 105.942 231.991 105.149H231.985V105.145C231.782 103.854 229.708 97.6983 241.984 99.8084ZM220.661 92.4648L220.666 92.4793L220.675 92.5251L220.681 92.5344C220.791 92.9377 221.395 95.1507 221.993 97.6422C224.939 106.884 231.763 120.259 248.916 114.14C256.139 111.565 259.901 104.105 261.817 96.0134C261.928 95.5311 262.035 95.054 262.129 94.5946C262.193 94.2879 262.254 93.9917 262.309 93.6986L262.392 93.2672L262.42 93.1092L262.425 93.0822L259.901 92.5708C259.418 94.9605 258.352 97.2108 257.043 99.2107C254.909 94.0977 244.08 97.4935 244.08 97.4935L244.029 97.5123C243.371 97.717 242.694 97.8231 242.012 97.8231C241.311 97.8231 240.615 97.7118 239.938 97.4935C239.938 97.4935 229.239 93.9491 227.022 98.8251C224.804 95.3918 223.301 92.2798 223.301 92.2798L220.666 92.4648H220.661Z" fill="#3E3358"/>
<path d="M230.89 85.7563C230.89 87.0836 231.574 88.1584 232.417 88.1584C233.26 88.1584 233.944 87.0836 233.944 85.7563C233.944 84.4299 233.26 83.3541 232.417 83.3541C231.574 83.3541 230.89 84.4299 230.89 85.7563Z" fill="#3E3358"/>
<path d="M249.979 85.7563C249.979 87.0836 250.663 88.1584 251.507 88.1584C252.35 88.1584 253.034 87.0836 253.034 85.7563C253.034 84.4299 252.35 83.3541 251.507 83.3541C250.663 83.3541 249.979 84.4299 249.979 85.7563Z" fill="#3E3358"/>
<path d="M226.979 77.657C226.979 77.657 233.29 75.1634 238.148 77.262L237.663 79.9646C237.663 79.9646 230.532 79.3617 226.939 80.8179C226.617 79.7775 226.57 78.7266 226.979 77.657Z" fill="#3E3358"/>
<path d="M256.983 77.6695C256.983 77.6695 250.626 75.1572 245.732 77.2714L246.221 79.9937C246.221 79.9937 253.406 79.3866 257.024 80.8533C257.35 79.8055 257.397 78.7463 256.983 77.6695Z" fill="#3E3358"/>
<path d="M241.397 96.4915C240.402 96.4915 239.413 96.1049 239.261 96.0415C238.959 95.9188 238.814 95.5748 238.938 95.2723C239.06 94.9709 239.406 94.8253 239.706 94.948C240.241 95.1652 241.52 95.5051 242.075 95.1725C242.182 95.1081 242.329 94.9813 242.365 94.6226C242.579 92.5615 242.014 85.6503 242.009 85.5806C241.982 85.2563 242.224 84.9705 242.549 84.9445C242.874 84.9164 243.159 85.1597 243.185 85.484C243.208 85.7729 243.765 92.5739 243.54 94.7443C243.456 95.5612 243.027 95.9791 242.682 96.186C242.303 96.4126 241.85 96.4915 241.397 96.4915Z" fill="#F25349"/>
<path d="M248.924 100.989C248.476 103.244 246.986 107.393 241.967 107.393C236.937 107.393 235.526 103.601 235.041 100.989H248.924Z" fill="white"/>
<path d="M219.054 76.7672C219.285 81.5975 219.745 87.6366 220.666 92.4658L223.304 92.2797C223.304 92.2797 222.665 88.201 222.371 85.5442C222.074 82.8874 221.573 77.922 223.84 77.3015C226.101 76.6882 224.775 71.0233 227.921 68.5672C231.069 66.1048 238.107 65.4301 242.748 68.2875C247.388 71.1387 252.617 68.0714 254.755 68.5672C256.897 69.0567 259.802 72.0087 259.017 74.7653C258.226 77.5167 260.587 79.1943 261.16 82.0455C261.733 84.8977 259.902 92.5718 259.902 92.5718L262.424 93.0801C263.558 86.857 263.729 80.5695 263.645 76.0771C263.558 71.4901 261.053 67.297 257.063 65.0372C246.253 58.9087 234.847 61.1934 227.337 64.0799C222.124 66.0819 218.788 71.2 219.054 76.7672Z" fill="#3E3358"/>
<path d="M327.695 209.75C326.09 224.387 316.533 257.088 309.916 263.494C301.302 271.833 272.952 289.389 258.184 298.392C255.519 300.015 268.033 310.828 268.033 310.828C268.033 310.828 307.242 294.063 322.217 280.843C326.452 277.103 335.054 265.308 344.764 242.84C347.708 236.029 354.841 222.29 354.471 213.333C354.045 203.023 337.666 204.719 327.695 209.75Z" fill="#583C9F"/>
<path d="M297.1 293.832C297.1 293.832 286.435 297.881 282.657 302.336C278.876 306.791 273.882 310.571 275.097 312.325C276.312 314.08 281.846 308.951 281.846 308.951C281.846 308.951 283.364 314.59 288.73 315.199C294.098 315.806 304.254 305.306 304.254 305.306L297.1 293.832Z" fill="#F6876F"/>
<path d="M402.366 250.62C402.369 251.546 402.362 252.641 402.345 253.883C402.329 255.12 402.303 256.5 402.264 258.009C402.235 259.043 402.202 260.137 402.164 261.283C402.129 262.25 402.092 263.252 402.051 264.291C402.005 265.351 401.956 266.445 401.902 267.574C401.16 282.903 399.365 304.069 395.417 321.038H312.451C315.218 308.705 319.452 289.254 322.809 264.016C322.95 262.954 323.091 261.884 323.229 260.801C323.366 259.718 323.5 258.624 323.635 257.522C323.709 256.937 323.779 256.345 323.849 255.754C323.905 255.266 323.963 254.78 324.017 254.299C324.171 252.939 324.311 251.6 324.436 250.287C324.54 249.191 324.637 248.113 324.73 247.05C326.152 230.082 325.65 217.366 327.694 209.75C330.076 200.884 357.84 190.72 357.84 190.72L375.234 191.63C375.234 191.63 391.819 197.045 400.684 204.828C409.555 212.615 402.137 235.846 402.354 249.038C402.362 249.492 402.365 250.02 402.366 250.62Z" fill="#765CB4"/>
<path d="M402.345 253.883C394.802 254.798 386.933 255.161 379.211 255.161C353.922 255.161 330.183 251.294 324.436 250.287C324.54 249.191 324.637 248.113 324.73 247.05C331.409 248.233 370.062 254.626 402.366 250.62C402.369 251.546 402.362 252.641 402.345 253.883Z" fill="#D4BDE3"/>
<path d="M402.264 258.009C402.235 259.043 402.202 260.137 402.164 261.283C394.675 262.183 386.87 262.536 379.211 262.536C352.494 262.536 327.507 258.222 323.635 257.522C323.709 256.937 323.779 256.345 323.849 255.754C323.906 255.266 323.963 254.78 324.017 254.299C327.862 255.001 368.503 262.172 402.264 258.009Z" fill="#D4BDE3"/>
<path d="M402.051 264.291C402.005 265.351 401.957 266.445 401.902 267.574C394.111 268.564 385.951 268.951 377.953 268.951C352.086 268.951 327.845 264.91 322.809 264.016C322.95 262.954 323.091 261.884 323.229 260.801C329.216 261.867 369.144 268.598 402.051 264.291Z" fill="#D4BDE3"/>
<path d="M362.857 207.407C371.506 207.407 379.486 198.215 379.831 197.81C380.05 197.554 380.02 197.17 379.765 196.951C379.51 196.73 379.124 196.76 378.904 197.016C378.821 197.114 370.465 206.742 362.112 206.161C361.778 206.137 361.484 206.392 361.461 206.727C361.438 207.063 361.692 207.355 362.028 207.379C362.304 207.399 362.582 207.407 362.857 207.407Z" fill="#583C9F"/>
<path d="M370.357 310.796C370.662 310.796 370.924 310.567 370.962 310.257C371 309.921 370.759 309.619 370.424 309.58C348.083 307.009 338.829 268.337 338.737 267.946C338.66 267.617 338.333 267.414 338.004 267.49C337.676 267.566 337.472 267.895 337.548 268.222C337.926 269.851 347.097 308.124 370.285 310.792L370.357 310.796Z" fill="#583C9F"/>
<path d="M361.459 299.094C361.664 299.094 361.864 298.992 361.979 298.804C362.156 298.518 362.067 298.141 361.78 297.965C349.896 290.639 348.13 279.839 348.113 279.73C348.063 279.398 347.754 279.165 347.418 279.218C347.086 279.269 346.856 279.58 346.907 279.912C346.976 280.377 348.751 291.366 361.139 299.003C361.239 299.065 361.35 299.094 361.459 299.094Z" fill="#583C9F"/>
<path d="M343.922 150.519C343.922 164.037 354.88 174.995 368.397 174.995C381.914 174.995 392.873 164.037 392.873 150.519C392.873 137.001 381.914 126.044 368.397 126.044C354.88 126.044 343.922 137.001 343.922 150.519Z" fill="#3E3358"/>
<path d="M344.322 146.131C344.322 146.131 337.391 144.217 338.305 137.491C339.083 131.765 345.807 135.476 345.217 131.003C344.626 126.527 343.312 122.46 349.099 121.34C354.163 120.362 354.249 123.833 360.898 118.798C368.753 112.851 374.786 126.623 381.797 127.036C392.137 127.646 393.442 133.493 394.459 138.172C395.477 142.85 391.496 146.131 391.496 146.131H344.322Z" fill="#3E3358"/>
<path d="M348.034 157.368C348.034 157.368 344.158 152.199 341.274 156.473C338.392 160.748 342.468 173.372 349.525 170.29L348.034 157.368Z" fill="#F25349"/>
<path d="M347.984 166.389C347.723 166.389 347.484 166.217 347.409 165.954C346.316 162.056 342.279 160.476 342.237 160.46C341.93 160.343 341.775 159.999 341.892 159.691C342.008 159.383 342.352 159.23 342.66 159.345C342.849 159.416 347.299 161.143 348.559 165.631C348.647 165.949 348.462 166.278 348.144 166.367L347.984 166.389Z" fill="#E43342"/>
<path d="M343.907 164.427C343.797 164.427 343.685 164.394 343.586 164.331C343.308 164.152 343.229 163.784 343.407 163.507C343.436 163.461 344.152 162.371 345.645 161.702C345.945 161.567 346.299 161.702 346.433 162.003C346.568 162.304 346.433 162.657 346.133 162.792C344.977 163.308 344.416 164.144 344.41 164.152C344.295 164.33 344.104 164.427 343.907 164.427Z" fill="#E43342"/>
<path d="M376.153 180.999V193.554C376.153 193.554 370.991 199.087 365.928 199.522C360.87 199.964 357.792 193.955 357.792 193.955V181.882L376.153 180.999Z" fill="#F6876F"/>
<path d="M376.153 180.999V186.57C372.755 190.34 366.722 191.283 357.792 189.963V181.882L376.153 180.999Z" fill="#F25349"/>
<path d="M389.39 148.755C389.157 153.634 388.691 159.736 387.761 164.614C387.528 165.831 387.266 166.976 386.974 168.002C384.332 177.254 377.723 193.118 359.221 186.511C351.049 183.594 347.263 174.492 345.575 165.235C344.429 158.948 344.257 152.596 344.34 148.058C344.429 143.423 346.959 139.188 350.991 136.905C361.911 130.714 373.436 133.021 381.021 135.938C386.288 137.96 389.658 143.131 389.39 148.755Z" fill="#F6876F"/>
<path d="M368.274 157.624C368.274 156.781 368.958 156.1 369.796 156.1H378.953C379.796 156.1 380.477 156.781 380.477 157.624V158.794C380.477 160.486 379.818 162.103 378.666 163.223C377.516 164.339 376.216 164.918 374.801 164.952H374.582C372.912 164.952 371.338 164.303 370.145 163.118C368.939 161.92 368.274 160.321 368.274 158.613V157.624ZM367.194 157.624V158.613C367.194 160.609 367.971 162.481 369.386 163.885C370.78 165.271 372.623 166.032 374.582 166.032H374.823C376.523 165.995 378.068 165.31 379.421 163.997C380.779 162.671 381.557 160.777 381.557 158.794V157.624C381.557 157.298 381.495 156.989 381.384 156.702C381.254 156.352 381.052 156.042 380.794 155.783C380.322 155.311 379.673 155.02 378.953 155.02H369.796C368.759 155.02 367.866 155.625 367.449 156.504C367.294 156.823 367.203 157.18 367.197 157.554L367.194 157.624Z" fill="#3E3358"/>
<path d="M349.938 157.624C349.938 156.781 350.622 156.1 351.461 156.1H360.621C361.46 156.1 362.144 156.781 362.144 157.624V158.794C362.144 160.486 361.482 162.103 360.333 163.223C359.185 164.339 357.886 164.918 356.47 164.952H356.246C354.576 164.952 353.001 164.303 351.814 163.118C350.604 161.92 349.938 160.321 349.938 158.613V157.624ZM348.857 157.624V158.613C348.857 160.609 349.639 162.481 351.05 163.885C352.444 165.271 354.288 166.032 356.246 166.032H356.492C358.188 165.995 359.736 165.31 361.086 163.997C362.443 162.671 363.224 160.777 363.224 158.794V157.624L363.221 157.573C363.217 157.219 363.138 156.881 363.001 156.575C362.598 155.657 361.684 155.02 360.621 155.02H351.461C350.657 155.02 349.938 155.387 349.459 155.959C349.228 156.241 349.051 156.568 348.959 156.925C348.889 157.149 348.857 157.381 348.857 157.624Z" fill="#3E3358"/>
<path d="M388.083 154.582C384.973 154.448 382.751 155.345 381.874 155.783C381.628 155.902 380.973 156.329 380.945 156.345L381.46 157.262C381.467 157.259 382.183 156.831 382.464 156.701C383.326 156.298 385.238 155.493 388.083 155.66V154.582Z" fill="#3E3358"/>
<path d="M367.918 157.664L368.274 156.642C368.209 156.621 366.693 156.1 365.028 156.1C363.254 156.1 362.112 156.643 362.064 156.667L362.536 157.638C362.544 157.636 363.517 157.18 365.028 157.18C366.506 157.18 367.904 157.659 367.918 157.664Z" fill="#3E3358"/>
<path d="M345.075 154.843V155.926C347.312 156.111 349.379 157.11 349.408 157.123L349.883 156.154C349.761 156.093 347.542 155.023 345.075 154.843Z" fill="#3E3358"/>
<path d="M357.334 159.007C357.334 160.347 356.643 161.433 355.792 161.433C354.94 161.433 354.249 160.347 354.249 159.007C354.249 157.666 354.94 156.58 355.792 156.58C356.643 156.58 357.334 157.666 357.334 159.007Z" fill="#3E3358"/>
<path d="M375.4 159.007C375.4 160.347 374.71 161.433 373.857 161.433C373.005 161.433 372.315 160.347 372.315 159.007C372.315 157.666 373.005 156.58 373.857 156.58C374.71 156.58 375.4 157.666 375.4 159.007Z" fill="#3E3358"/>
<path d="M350.774 151.554C350.774 151.554 357.195 149.017 362.14 151.153L361.727 153.448C361.727 153.448 356.371 152.253 351.129 154.209C350.801 153.15 350.356 152.643 350.774 151.554Z" fill="#3E3358"/>
<path d="M380.161 151.554C380.161 151.554 373.738 149.017 368.794 151.153L369.207 153.448C369.207 153.448 374.561 152.253 379.805 154.209C380.134 153.15 380.578 152.643 380.161 151.554Z" fill="#3E3358"/>
<path d="M365.771 169.176C366.778 169.176 367.776 168.785 367.931 168.723C368.235 168.597 368.381 168.25 368.257 167.945C368.133 167.641 367.784 167.493 367.48 167.618C366.94 167.836 365.648 168.179 365.087 167.843C364.98 167.778 364.831 167.65 364.794 167.288C364.579 165.205 365.149 158.224 365.154 158.154C365.181 157.825 364.937 157.537 364.609 157.51C364.279 157.482 363.993 157.728 363.965 158.056C363.942 158.347 363.381 165.219 363.607 167.411C363.693 168.236 364.125 168.658 364.475 168.867C364.857 169.096 365.315 169.176 365.771 169.176Z" fill="#F25349"/>
<path d="M358.378 172.205C358.866 174.658 360.485 179.169 365.943 179.169C371.415 179.169 372.95 175.047 373.477 172.205H358.378Z" fill="white"/>
<path d="M365.869 182.283C367.414 182.283 368.723 181.501 368.778 181.468C369.059 181.298 369.149 180.931 368.978 180.649C368.808 180.367 368.442 180.277 368.159 180.447C368.15 180.454 367.072 181.091 365.869 181.091C364.767 181.091 363.71 180.457 363.699 180.451C363.42 180.278 363.052 180.364 362.879 180.644C362.705 180.925 362.792 181.292 363.073 181.465C363.127 181.499 364.413 182.283 365.869 182.283Z" fill="#F25349"/>
<path d="M347.421 161.347C346.97 158.888 346.525 155.713 346.848 154.085C347.429 151.205 349.814 149.512 349.019 146.736C348.224 143.948 351.159 140.965 353.323 140.469C355.481 139.968 360.532 141.044 365.503 138.683C370.247 136.428 378.496 138.041 379.841 141.086C381.467 144.773 379.254 145.122 383.694 149.109C385.461 150.698 383.363 154.824 383.063 157.509C382.929 158.744 382.909 159.347 382.959 160.673L382.975 161.347H388.289C388.874 157.184 389.209 152.594 389.392 148.754C389.661 143.129 386.286 137.962 381.021 135.938C373.433 133.021 361.914 130.711 350.988 136.905C346.959 139.19 344.427 143.422 344.342 148.057C344.274 151.656 344.37 156.399 344.984 161.347H347.421Z" fill="#3E3358"/>
<path d="M385.934 163.642C385.917 162.253 386.016 160.862 386.258 159.496C386.59 157.624 387.133 155.926 389.048 155.146C390.588 154.519 392.232 154.506 393.404 156.242C396.287 160.517 393.077 173.818 386.019 170.737L385.934 163.642Z" fill="#F6876F"/>
<path d="M387.383 166.863C387.639 166.812 387.84 166.596 387.86 166.323C388.169 162.287 391.821 159.947 391.857 159.924C392.136 159.748 392.221 159.38 392.046 159.102C391.872 158.823 391.503 158.738 391.225 158.913C391.054 159.02 387.028 161.584 386.672 166.232C386.646 166.561 386.892 166.847 387.22 166.871L387.383 166.863Z" fill="#F25349"/>
<path d="M390.996 164.139C391.105 164.118 391.208 164.066 391.293 163.983C391.53 163.753 391.536 163.376 391.307 163.139C391.269 163.1 390.355 162.171 388.759 161.808C388.439 161.735 388.117 161.936 388.045 162.257C387.972 162.578 388.173 162.898 388.494 162.97C389.729 163.252 390.444 163.962 390.45 163.969C390.597 164.121 390.803 164.178 390.996 164.139Z" fill="#F25349"/>
<path d="M397.158 202.105C388.441 215.317 355.079 260.996 347.552 266.302C337.753 273.211 311.04 283.033 295.704 293.275C290.494 296.754 302.804 306.6 302.804 306.6C302.804 306.6 340.188 296.092 357.025 285.343C361.788 282.302 381.598 262.459 394.227 244.858C398.554 238.829 405.593 230.454 406.61 221.547C407.782 211.296 404.562 205.81 397.158 202.105Z" fill="#583C9F"/>
<path d="M331.035 321.038H227.109C225.781 321.038 224.705 319.962 224.705 318.633V310.351C224.705 309.024 225.781 307.947 227.109 307.947H331.035C332.364 307.947 333.44 309.024 333.44 310.351V318.633C333.44 319.962 332.364 321.038 331.035 321.038Z" fill="#292346"/>
<path d="M224.728 321.038L204.289 244.495C203.141 240.196 206.381 235.977 210.83 235.977H255.805C258.838 235.977 261.503 237.996 262.323 240.917L284.829 321.038H224.728Z" fill="#3E3358"/>
<path d="M262.326 240.919L284.646 320.379H289.784L267.465 240.919C266.639 237.996 263.98 235.975 260.945 235.975H255.805C258.84 235.975 261.5 237.996 262.326 240.919Z" fill="#292346"/>
<path d="M250.764 281.935C251.932 286.983 248.787 291.075 243.737 291.075C238.689 291.075 233.648 286.983 232.481 281.935C231.313 276.886 234.458 272.794 239.507 272.794C244.555 272.794 249.595 276.886 250.764 281.935Z" fill="#58426E"/>
<path d="M390.128 27.5439C387.53 27.5439 385.417 29.6581 385.417 32.2546C385.417 34.8521 387.53 36.9653 390.128 36.9653C392.724 36.9653 394.837 34.8521 394.837 32.2546C394.837 29.6581 392.724 27.5439 390.128 27.5439ZM390.128 39.119C386.342 39.119 383.264 36.0392 383.264 32.2546C383.264 28.47 386.342 25.3912 390.128 25.3912C393.912 25.3912 396.991 28.47 396.991 32.2546C396.991 36.0392 393.912 39.119 390.128 39.119Z" fill="#583C9F"/>
<path d="M414.837 51.6245C412.24 51.6245 410.125 53.7376 410.125 56.3352C410.125 58.9317 412.24 61.0448 414.837 61.0448C417.434 61.0448 419.547 58.9317 419.547 56.3352C419.547 53.7376 417.434 51.6245 414.837 51.6245ZM414.837 63.1985C411.051 63.1985 407.973 60.1197 407.973 56.3352C407.973 52.5496 411.051 49.4708 414.837 49.4708C418.621 49.4708 421.699 52.5496 421.699 56.3352C421.699 60.1197 418.621 63.1985 414.837 63.1985Z" fill="#765CB4"/>
<path d="M423.317 85.5027C422.721 85.5027 422.24 85.0203 422.24 84.4258V79.6777C422.24 79.0831 422.721 78.6008 423.317 78.6008C423.911 78.6008 424.394 79.0831 424.394 79.6777V84.4258C424.394 85.0203 423.911 85.5027 423.317 85.5027Z" fill="#583C9F"/>
<path d="M423.317 93.8108C422.721 93.8108 422.24 93.3285 422.24 92.735V87.9869C422.24 87.3913 422.721 86.91 423.317 86.91C423.911 86.91 424.394 87.3913 424.394 87.9869V92.735C424.394 93.3285 423.911 93.8108 423.317 93.8108Z" fill="#583C9F"/>
<path d="M429.982 87.2822H425.716C425.121 87.2822 424.639 86.8009 424.639 86.2064C424.639 85.6118 425.121 85.1295 425.716 85.1295H429.982C430.575 85.1295 431.057 85.6118 431.057 86.2064C431.057 86.8009 430.575 87.2822 429.982 87.2822Z" fill="#583C9F"/>
<path d="M420.917 87.2822H416.652C416.057 87.2822 415.575 86.8009 415.575 86.2064C415.575 85.6118 416.057 85.1295 416.652 85.1295H420.917C421.511 85.1295 421.994 85.6118 421.994 86.2064C421.994 86.8009 421.511 87.2822 420.917 87.2822Z" fill="#583C9F"/>
<path d="M385.417 58.8974C384.822 58.8974 384.34 58.4161 384.34 57.8205V53.0724C384.34 52.4778 384.822 51.9955 385.417 51.9955C386.012 51.9955 386.494 52.4778 386.494 53.0724V57.8205C386.494 58.4161 386.012 58.8974 385.417 58.8974Z" fill="#4C3297"/>
<path d="M385.417 67.2066C384.822 67.2066 384.34 66.7243 384.34 66.1297V61.3816C384.34 60.787 384.822 60.3047 385.417 60.3047C386.012 60.3047 386.494 60.787 386.494 61.3816V66.1297C386.494 66.7243 386.012 67.2066 385.417 67.2066Z" fill="#4C3297"/>
<path d="M392.082 60.6779H387.816C387.221 60.6779 386.739 60.1956 386.739 59.601C386.739 59.0065 387.221 58.5242 387.816 58.5242H392.082C392.675 58.5242 393.158 59.0065 393.158 59.601C393.158 60.1956 392.675 60.6779 392.082 60.6779Z" fill="#4C3297"/>
<path d="M383.017 60.6779H378.753C378.158 60.6779 377.676 60.1956 377.676 59.601C377.676 59.0065 378.158 58.5242 378.753 58.5242H383.017C383.612 58.5242 384.094 59.0065 384.094 59.601C384.094 60.1956 383.612 60.6779 383.017 60.6779Z" fill="#4C3297"/>
<path d="M73.746 7.60553C73.746 10.2031 75.8594 12.3162 78.4563 12.3162C81.0536 12.3162 83.1668 10.2031 83.1668 7.60553C83.1668 5.00799 81.0536 2.89484 78.4563 2.89484C75.8594 2.89484 73.746 5.00799 73.746 7.60553ZM71.5933 7.60553C71.5933 3.82095 74.6717 0.742179 78.4563 0.742179C82.2417 0.742179 85.3205 3.82095 85.3205 7.60553C85.3205 11.3901 82.2417 14.4699 78.4563 14.4699C74.6717 14.4699 71.5933 11.3901 71.5933 7.60553Z" fill="#583C9F"/>
<path d="M46.1823 33.768C46.1823 36.3645 48.2952 38.4777 50.8927 38.4777C53.49 38.4777 55.6026 36.3645 55.6026 33.768C55.6026 31.1705 53.49 29.0573 50.8927 29.0573C48.2952 29.0573 46.1823 31.1705 46.1823 33.768ZM44.0287 33.768C44.0287 29.9835 47.108 26.9036 50.8927 26.9036C54.6768 26.9036 57.7562 29.9835 57.7562 33.768C57.7562 37.5526 54.6768 40.6314 50.8927 40.6314C47.108 40.6314 44.0287 37.5526 44.0287 33.768Z" fill="#765CB4"/>
<path d="M29.7588 43.3994C30.3533 43.3994 30.8357 42.9171 30.8357 42.3226V37.5744C30.8357 36.9799 30.3533 36.4986 29.7588 36.4986C29.1644 36.4986 28.6825 36.9799 28.6825 37.5744V42.3226C28.6825 42.9171 29.1644 43.3994 29.7588 43.3994Z" fill="#583C9F"/>
<path d="M29.7588 51.7086C30.3533 51.7086 30.8357 51.2263 30.8357 50.6318V45.8836C30.8357 45.2891 30.3533 44.8068 29.7588 44.8068C29.1644 44.8068 28.6825 45.2891 28.6825 45.8836V50.6318C28.6825 51.2263 29.1644 51.7086 29.7588 51.7086Z" fill="#583C9F"/>
<path d="M23.0948 45.18H27.3597C27.9542 45.18 28.4366 44.6977 28.4366 44.1031C28.4366 43.5086 27.9542 43.0263 27.3597 43.0263H23.0948C22.5004 43.0263 22.0181 43.5086 22.0181 44.1031C22.0181 44.6977 22.5004 45.18 23.0948 45.18Z" fill="#583C9F"/>
<path d="M32.1581 45.18H36.4234C37.0179 45.18 37.4999 44.6977 37.4999 44.1031C37.4999 43.5086 37.0179 43.0263 36.4234 43.0263H32.1581C31.5637 43.0263 31.0818 43.5086 31.0818 44.1031C31.0818 44.6977 31.5637 45.18 32.1581 45.18Z" fill="#583C9F"/>
<path d="M54.5673 6.90186C55.1617 6.90186 55.6437 6.42059 55.6437 5.82499V1.07687C55.6437 0.482319 55.1617 1.19209e-05 54.5673 1.19209e-05C53.9728 1.19209e-05 53.491 0.482319 53.491 1.07687V5.82499C53.491 6.42059 53.9728 6.90186 54.5673 6.90186Z" fill="#4C3297"/>
<path d="M54.5673 15.2111C55.1617 15.2111 55.6437 14.7288 55.6437 14.1342V9.38608C55.6437 8.79152 55.1617 8.30922 54.5673 8.30922C53.9728 8.30922 53.491 8.79152 53.491 9.38608V14.1342C53.491 14.7288 53.9728 15.2111 54.5673 15.2111Z" fill="#4C3297"/>
<path d="M47.9032 8.6824H52.1685C52.7625 8.6824 53.2448 8.2001 53.2448 7.60554C53.2448 7.01099 52.7625 6.52974 52.1685 6.52974H47.9032C47.3087 6.52974 46.8263 7.01099 46.8263 7.60554C46.8263 8.2001 47.3087 8.6824 47.9032 8.6824Z" fill="#4C3297"/>
<path d="M56.9668 8.6824H61.2317C61.8265 8.6824 62.3089 8.2001 62.3089 7.60554C62.3089 7.01099 61.8265 6.52974 61.2317 6.52974H56.9668C56.3719 6.52974 55.89 7.01099 55.89 7.60554C55.89 8.2001 56.3719 8.6824 56.9668 8.6824Z" fill="#4C3297"/>
<path d="M336.371 14.892V35.7929C336.371 38.5557 334.129 40.7967 331.368 40.7967H293.419L281.962 44.9066C280.786 45.3297 279.66 44.1728 280.11 43.0097L284.444 31.8181V14.892C284.444 12.1302 286.685 9.88816 289.451 9.88816H331.368C334.129 9.88816 336.371 12.1302 336.371 14.892Z" fill="#765CB4"/>
<path d="M328.371 20.8053H293.557C292.794 20.8053 292.177 20.1879 292.177 19.4249C292.177 18.662 292.794 18.0435 293.557 18.0435H328.371C329.134 18.0435 329.752 18.662 329.752 19.4249C329.752 20.1879 329.134 20.8053 328.371 20.8053Z" fill="#A585C9"/>
<path d="M328.371 26.3663H293.557C292.794 26.3663 292.177 25.7488 292.177 24.9859C292.177 24.224 292.794 23.6055 293.557 23.6055H328.371C329.134 23.6055 329.752 24.224 329.752 24.9859C329.752 25.7488 329.134 26.3663 328.371 26.3663Z" fill="#A585C9"/>
<path d="M328.371 31.9282H293.557C292.794 31.9282 292.177 31.3098 292.177 30.5479C292.177 29.7849 292.794 29.1665 293.557 29.1665H328.371C329.134 29.1665 329.752 29.7849 329.752 30.5479C329.752 31.3098 329.134 31.9282 328.371 31.9282Z" fill="#A585C9"/>
<path d="M448.31 328.854V329.602C448.31 333.909 444.815 337.404 440.505 337.404H35.7137C31.4034 337.404 27.9115 333.909 27.9115 329.602V328.854C27.9115 324.546 31.4034 321.051 35.7137 321.051H440.505C444.815 321.051 448.31 324.546 448.31 328.854Z" fill="#4C3297"/>
<path d="M448.31 328.854V329.229H27.9115V328.854C27.9115 324.546 31.4034 321.051 35.7137 321.051H440.505C444.815 321.051 448.31 324.546 448.31 328.854Z" fill="#583C9F"/>
</svg>
