<svg width="449" height="258" viewBox="0 0 449 258" fill="none" xmlns="http://www.w3.org/2000/svg">
<g clip-path="url(#clip0)">
<path d="M392.667 226.054C380.945 225.942 369.241 225.009 357.63 223.259C357.222 223.198 356.814 223.131 356.406 223.07L357.02 103.718C357.425 103.368 357.835 103.023 358.249 102.689C359.622 101.575 361.034 100.53 362.494 99.5715C369.529 94.9635 377.766 92.8539 383.448 94.9679L383.537 95.0058C384.781 95.4621 385.93 96.1812 386.918 97.1217C391.909 101.942 391.077 111.687 387.049 120.531C395.035 112.598 405.112 106.282 414.108 105.802C422.882 105.332 429.149 110.32 434.476 115.73C434.652 115.907 434.823 116.085 434.995 116.262C435.083 116.348 435.166 116.44 435.254 116.526C439.313 120.747 443.315 125.668 442.83 132.79C442.299 140.602 436.28 149.263 429.267 155.336C422.259 161.408 414.298 165.444 406.528 169.534C398.763 173.63 390.8 178.061 384.163 184.633C394.519 175.732 406.302 168.555 417.762 165.903C429.222 163.252 440.228 165.585 445.625 173.519C447.213 175.927 448.248 178.714 448.642 181.647C448.694 181.989 448.737 182.336 448.774 182.69C449.543 190.034 447.206 198.802 441.622 206.263C435.473 214.479 426.358 220.175 417.704 223.01C409.051 225.844 400.72 226.146 392.667 226.054Z" fill="#DBD6D6"/>
<path d="M356.792 147.967L356.804 145.685C357.221 144.96 357.633 144.232 358.04 143.501C358.303 143.048 358.556 142.59 358.814 142.132C363.066 134.561 367.145 126.944 371.051 119.279C374.96 111.621 378.689 103.925 382.237 96.1899C382.319 95.9849 382.465 95.8176 382.649 95.7172C382.833 95.6167 383.043 95.5894 383.243 95.6401C383.269 95.6484 383.294 95.6612 383.317 95.6781C383.503 95.786 383.58 96.0271 383.421 96.379C382.984 97.3278 382.546 98.282 382.099 99.2307C378.489 106.987 374.7 114.709 370.73 122.399C366.762 130.083 362.619 137.723 358.301 145.32C358.211 145.48 358.117 145.64 358.028 145.799C357.616 146.524 357.204 147.243 356.792 147.967Z" fill="white"/>
<path d="M356.641 177.394L356.648 175.983C357.058 175.664 357.468 175.351 357.878 175.033C367.523 167.555 377.169 160.078 386.815 152.603C402.607 140.361 418.398 128.123 434.19 115.889C434.275 115.816 434.372 115.762 434.476 115.73C434.826 115.625 435.031 115.904 434.994 116.262C434.975 116.413 434.925 116.558 434.85 116.686C434.775 116.815 434.675 116.925 434.558 117.008C425.702 123.871 416.849 130.733 408 137.593C392.287 149.771 376.576 161.947 360.867 174.121C359.87 174.896 358.868 175.67 357.87 176.444C357.461 176.763 357.051 177.081 356.641 177.394Z" fill="white"/>
<path d="M364.179 208.834C361.992 208.762 359.839 208.605 357.706 208.399C357.298 208.359 356.89 208.319 356.482 208.279L356.49 206.799C356.898 206.844 357.306 206.889 357.714 206.929C360.795 207.242 363.911 207.464 367.112 207.494C375.985 207.533 384.84 206.593 393.539 204.688C402.905 202.663 412.092 199.755 420.995 195.997C430.384 192.053 439.468 187.298 448.159 181.777C448.301 181.673 448.472 181.627 448.642 181.647C449.03 181.708 449.145 182.27 448.774 182.69C448.701 182.773 448.618 182.844 448.527 182.902C447.447 183.585 446.363 184.255 445.277 184.914C436.537 190.231 427.422 194.782 418.017 198.523C409.085 202.088 399.885 204.799 390.52 206.626C381.832 208.337 373.006 209.077 364.179 208.834V208.834Z" fill="white"/>
<path d="M353.365 -1.52527e-05H54.9213C53.7845 0.00110861 52.6946 0.492568 51.8908 1.36648C51.087 2.2404 50.635 3.42535 50.634 4.66123V224.531C50.635 225.767 51.087 226.952 51.8908 227.826C52.6946 228.7 53.7845 229.191 54.9213 229.192H353.365C353.985 229.192 354.597 229.046 355.16 228.764C355.723 228.481 356.223 228.069 356.625 227.557C356.659 227.516 356.69 227.473 356.718 227.428C356.974 227.088 357.181 226.708 357.333 226.3C357.549 225.74 357.659 225.138 357.657 224.531V4.66127C357.656 3.42451 357.203 2.23887 356.398 1.36485C355.594 0.49083 354.503 -7.83189e-05 353.365 -1.52527e-05V-1.52527e-05ZM356.433 224.531C356.434 225.181 356.257 225.817 355.927 226.359C355.633 226.836 355.234 227.226 354.766 227.492C354.333 227.736 353.853 227.862 353.365 227.861H54.9213C54.1092 227.86 53.3306 227.509 52.7564 226.885C52.1822 226.26 51.8591 225.414 51.8582 224.531V4.66127C51.8591 3.77836 52.1822 2.93192 52.7564 2.30761C53.3306 1.68329 54.1092 1.33209 54.9213 1.33102H353.365C354.178 1.3309 354.958 1.68156 355.533 2.30597C356.108 2.93038 356.432 3.77749 356.433 4.66127V224.531Z" fill="#3F3D56"/>
<path d="M357.043 18.682H51.245V20.0145H357.043V18.682Z" fill="#3F3D56"/>
<path d="M61.663 13.9915C63.6937 13.9915 65.3399 12.2017 65.3399 9.99394C65.3399 7.78614 63.6937 5.99637 61.663 5.99637C59.6323 5.99637 57.9861 7.78614 57.9861 9.99394C57.9861 12.2017 59.6323 13.9915 61.663 13.9915Z" fill="#3F3D56"/>
<path d="M72.2342 13.9915C74.2649 13.9915 75.9111 12.2017 75.9111 9.99394C75.9111 7.78614 74.2649 5.99637 72.2342 5.99637C70.2035 5.99637 68.5573 7.78614 68.5573 9.99394C68.5573 12.2017 70.2035 13.9915 72.2342 13.9915Z" fill="#3F3D56"/>
<path d="M82.8053 13.9915C84.8361 13.9915 86.4823 12.2017 86.4823 9.99394C86.4823 7.78614 84.8361 5.99637 82.8053 5.99637C80.7746 5.99637 79.1284 7.78614 79.1284 9.99394C79.1284 12.2017 80.7746 13.9915 82.8053 13.9915Z" fill="#3F3D56"/>
<path d="M280.893 49.5268H127.492C125.796 49.5268 124.171 48.7947 122.972 47.4915C121.773 46.1883 121.1 44.4207 121.1 42.5777C121.1 40.7347 121.773 38.9671 122.972 37.6639C124.171 36.3607 125.796 35.6286 127.492 35.6286H280.893C282.588 35.6286 284.214 36.3607 285.412 37.6639C286.611 38.9671 287.284 40.7347 287.284 42.5777C287.284 44.4207 286.611 46.1883 285.412 47.4915C284.214 48.7947 282.588 49.5268 280.893 49.5268ZM127.492 36.6977C126.057 36.6977 124.682 37.3172 123.667 38.4199C122.653 39.5226 122.083 41.0182 122.083 42.5777C122.083 44.1372 122.653 45.6328 123.667 46.7355C124.682 47.8382 126.057 48.4577 127.492 48.4577H280.893C282.327 48.4577 283.703 47.8382 284.717 46.7355C285.731 45.6328 286.301 44.1372 286.301 42.5777C286.301 41.0182 285.731 39.5226 284.717 38.4199C283.703 37.3172 282.327 36.6977 280.893 36.6977H127.492Z" fill="#3F3D56"/>
<path d="M128.773 92.0233H115.006C113.963 92.0233 112.963 91.5727 112.225 90.7708C111.487 89.9688 111.073 88.8811 111.073 87.7469C111.073 86.6127 111.487 85.525 112.225 84.7231C112.963 83.9211 113.963 83.4705 115.006 83.4705H128.773C129.816 83.4705 130.817 83.9211 131.554 84.7231C132.292 85.525 132.706 86.6127 132.706 87.7469C132.706 88.8811 132.292 89.9688 131.554 90.7708C130.817 91.5727 129.816 92.0233 128.773 92.0233Z" fill="#CCCCCC"/>
<path d="M144.998 106.456H115.006C113.963 106.456 112.963 106.005 112.225 105.204C111.487 104.402 111.073 103.314 111.073 102.18C111.073 101.045 111.487 99.9578 112.225 99.1558C112.963 98.3538 113.963 97.9033 115.006 97.9033H144.998C146.041 97.9033 147.042 98.3538 147.78 99.1558C148.517 99.9578 148.932 101.045 148.932 102.18C148.932 103.314 148.517 104.402 147.78 105.204C147.042 106.005 146.041 106.456 144.998 106.456Z" fill="#CCCCCC"/>
<path d="M131.231 155.1H117.465C116.421 155.1 115.421 154.649 114.683 153.847C113.946 153.045 113.531 151.958 113.531 150.823C113.531 149.689 113.946 148.602 114.683 147.8C115.421 146.998 116.421 146.547 117.465 146.547H131.231C132.275 146.547 133.275 146.998 134.013 147.8C134.75 148.602 135.165 149.689 135.165 150.823C135.165 151.958 134.75 153.045 134.013 153.847C133.275 154.649 132.275 155.1 131.231 155.1Z" fill="#CCCCCC"/>
<path d="M147.456 169.533H117.465C116.421 169.533 115.421 169.082 114.683 168.28C113.946 167.478 113.531 166.39 113.531 165.256C113.531 164.122 113.946 163.034 114.683 162.232C115.421 161.43 116.421 160.98 117.465 160.98H147.456C148.5 160.98 149.5 161.43 150.238 162.232C150.975 163.034 151.39 164.122 151.39 165.256C151.39 166.39 150.975 167.478 150.238 168.28C149.5 169.082 148.5 169.533 147.456 169.533Z" fill="#CCCCCC"/>
<path d="M221.699 153.496H207.932C206.889 153.496 205.888 153.046 205.151 152.244C204.413 151.442 203.999 150.354 203.999 149.22C203.999 148.086 204.413 146.998 205.151 146.196C205.888 145.394 206.889 144.943 207.932 144.943H221.699C222.742 144.943 223.742 145.394 224.48 146.196C225.218 146.998 225.632 148.086 225.632 149.22C225.632 150.354 225.218 151.442 224.48 152.244C223.742 153.046 222.742 153.496 221.699 153.496Z" fill="#CCCCCC"/>
<path d="M237.924 167.929H207.932C206.889 167.929 205.888 167.478 205.151 166.676C204.413 165.874 203.999 164.787 203.999 163.653C203.999 162.518 204.413 161.431 205.151 160.629C205.888 159.827 206.889 159.376 207.932 159.376H237.924C238.967 159.376 239.967 159.827 240.705 160.629C241.443 161.431 241.857 162.518 241.857 163.653C241.857 164.787 241.443 165.874 240.705 166.676C239.967 167.478 238.967 167.929 237.924 167.929Z" fill="#CCCCCC"/>
<path d="M220.224 94.696H206.457C205.414 94.696 204.413 94.2454 203.676 93.4435C202.938 92.6415 202.524 91.5538 202.524 90.4196C202.524 89.2855 202.938 88.1978 203.676 87.3958C204.413 86.5938 205.414 86.1432 206.457 86.1432H220.224C221.267 86.1432 222.267 86.5938 223.005 87.3958C223.743 88.1978 224.157 89.2855 224.157 90.4196C224.157 91.5538 223.743 92.6415 223.005 93.4435C222.267 94.2454 221.267 94.696 220.224 94.696Z" fill="#CCCCCC"/>
<path d="M236.449 109.129H206.457C205.414 109.129 204.413 108.678 203.676 107.876C202.938 107.074 202.524 105.987 202.524 104.852C202.524 103.718 202.938 102.631 203.676 101.829C204.413 101.027 205.414 100.576 206.457 100.576H236.449C237.492 100.576 238.492 101.027 239.23 101.829C239.968 102.631 240.382 103.718 240.382 104.852C240.382 105.987 239.968 107.074 239.23 107.876C238.492 108.678 237.492 109.129 236.449 109.129Z" fill="#CCCCCC"/>
<path d="M312.166 91.4887H298.399C297.356 91.4887 296.356 91.0382 295.618 90.2362C294.88 89.4342 294.466 88.3465 294.466 87.2123C294.466 86.0782 294.88 84.9905 295.618 84.1885C296.356 83.3865 297.356 82.936 298.399 82.936H312.166C313.209 82.936 314.21 83.3865 314.947 84.1885C315.685 84.9905 316.099 86.0782 316.099 87.2123C316.099 88.3465 315.685 89.4342 314.947 90.2362C314.21 91.0382 313.209 91.4887 312.166 91.4887Z" fill="#CCCCCC"/>
<path d="M328.391 105.921H298.399C297.356 105.921 296.356 105.471 295.618 104.669C294.88 103.867 294.466 102.779 294.466 101.645C294.466 100.511 294.88 99.4232 295.618 98.6213C296.356 97.8193 297.356 97.3687 298.399 97.3687H328.391C329.434 97.3687 330.435 97.8193 331.172 98.6213C331.91 99.4232 332.324 100.511 332.324 101.645C332.324 102.779 331.91 103.867 331.172 104.669C330.435 105.471 329.434 105.921 328.391 105.921Z" fill="#CCCCCC"/>
<path d="M90.7169 111C98.8632 111 105.467 103.82 105.467 94.9633C105.467 86.1066 98.8632 78.9268 90.7169 78.9268C82.5706 78.9268 75.9668 86.1066 75.9668 94.9633C75.9668 103.82 82.5706 111 90.7169 111Z" fill="#83D39D"/>
<path d="M97.6004 102.18H83.8337C83.4426 102.179 83.0677 102.01 82.7911 101.71C82.5146 101.409 82.3591 101.001 82.3586 100.576V89.3506C82.3591 88.9254 82.5146 88.5178 82.7911 88.2172C83.0677 87.9165 83.4426 87.7474 83.8337 87.747H87.7092C87.9612 87.746 88.2093 87.8156 88.4293 87.9493C88.6494 88.0829 88.8341 88.276 88.9655 88.5099L90.0463 90.4197H97.6004C97.9915 90.4202 98.3664 90.5893 98.6429 90.8899C98.9195 91.1906 99.075 91.5982 99.0754 92.0234V100.576C99.075 101.001 98.9195 101.409 98.6429 101.71C98.3664 102.01 97.9915 102.179 97.6004 102.18V102.18ZM83.8337 88.8161C83.7033 88.8163 83.5783 88.8726 83.4862 88.9728C83.394 89.073 83.3422 89.2089 83.342 89.3506V100.576C83.3422 100.718 83.394 100.854 83.4862 100.954C83.5783 101.054 83.7033 101.11 83.8337 101.111H97.6004C97.7308 101.11 97.8557 101.054 97.9479 100.954C98.0401 100.854 98.0919 100.718 98.0921 100.576V92.0234C98.0919 91.8816 98.0401 91.7458 97.9479 91.6456C97.8557 91.5454 97.7308 91.489 97.6004 91.4888H89.497L88.1281 89.0703C88.0842 88.9923 88.0227 88.928 87.9493 88.8835C87.8759 88.8389 87.7932 88.8157 87.7092 88.8161H83.8337Z" fill="white"/>
<path d="M181.184 113.672C189.33 113.672 195.934 106.493 195.934 97.636C195.934 88.7793 189.33 81.5996 181.184 81.5996C173.038 81.5996 166.434 88.7793 166.434 97.636C166.434 106.493 173.038 113.672 181.184 113.672Z" fill="#83D39D"/>
<path d="M187.576 107.792H174.793C174.402 107.792 174.027 107.623 173.75 107.322C173.474 107.022 173.318 106.614 173.318 106.189V89.0833C173.318 88.6582 173.474 88.2506 173.75 87.9499C174.027 87.6493 174.402 87.4802 174.793 87.4797H184.055C184.391 87.48 184.717 87.6048 184.979 87.8334L188.5 90.9091C188.672 91.059 188.811 91.2492 188.907 91.4656C189.002 91.682 189.052 91.9191 189.051 92.1591V106.189C189.051 106.614 188.895 107.022 188.619 107.322C188.342 107.623 187.967 107.792 187.576 107.792ZM174.793 88.5488C174.662 88.549 174.537 88.6054 174.445 88.7056C174.353 88.8058 174.301 88.9416 174.301 89.0833V106.189C174.301 106.331 174.353 106.466 174.445 106.567C174.537 106.667 174.662 106.723 174.793 106.723H187.576C187.706 106.723 187.831 106.667 187.924 106.567C188.016 106.466 188.068 106.331 188.068 106.189V92.1591C188.068 92.0791 188.051 92.0001 188.02 91.928C187.988 91.8558 187.942 91.7924 187.884 91.7425L184.363 88.6665C184.276 88.5904 184.167 88.5489 184.055 88.5488H174.793Z" fill="white"/>
<path d="M185.118 94.9634H177.251C177.121 94.9634 176.995 94.907 176.903 94.8068C176.811 94.7066 176.759 94.5706 176.759 94.4288C176.759 94.2871 176.811 94.1511 176.903 94.0508C176.995 93.9506 177.121 93.8943 177.251 93.8943H185.118C185.248 93.8943 185.373 93.9506 185.465 94.0508C185.558 94.1511 185.609 94.2871 185.609 94.4288C185.609 94.5706 185.558 94.7066 185.465 94.8068C185.373 94.907 185.248 94.9634 185.118 94.9634Z" fill="white"/>
<path d="M185.118 98.1706H177.251C177.121 98.1706 176.995 98.1143 176.903 98.0141C176.811 97.9138 176.759 97.7779 176.759 97.6361C176.759 97.4943 176.811 97.3584 176.903 97.2581C176.995 97.1579 177.121 97.1016 177.251 97.1016H185.118C185.248 97.1016 185.373 97.1579 185.465 97.2581C185.558 97.3584 185.609 97.4943 185.609 97.6361C185.609 97.7779 185.558 97.9138 185.465 98.0141C185.373 98.1143 185.248 98.1706 185.118 98.1706Z" fill="white"/>
<path d="M185.118 101.378H177.251C177.121 101.378 176.995 101.322 176.903 101.221C176.811 101.121 176.759 100.985 176.759 100.843C176.759 100.702 176.811 100.566 176.903 100.465C176.995 100.365 177.121 100.309 177.251 100.309H185.118C185.248 100.309 185.373 100.365 185.465 100.465C185.558 100.566 185.609 100.702 185.609 100.843C185.609 100.985 185.558 101.121 185.465 101.221C185.373 101.322 185.248 101.378 185.118 101.378Z" fill="white"/>
<path d="M272.143 110.465C280.289 110.465 286.893 103.285 286.893 94.4287C286.893 85.572 280.289 78.3923 272.143 78.3923C263.997 78.3923 257.393 85.572 257.393 94.4287C257.393 103.285 263.997 110.465 272.143 110.465Z" fill="#83D39D"/>
<path d="M279.026 100.309H265.26C264.869 100.308 264.494 100.139 264.217 99.8386C263.941 99.538 263.785 99.1304 263.785 98.7052V90.1524C263.785 89.7273 263.941 89.3196 264.217 89.019C264.494 88.7184 264.869 88.5493 265.26 88.5488H279.026C279.417 88.5493 279.792 88.7184 280.069 89.019C280.345 89.3196 280.501 89.7273 280.501 90.1524V98.7052C280.501 99.1304 280.345 99.538 280.069 99.8386C279.792 100.139 279.417 100.308 279.026 100.309ZM265.26 89.6179C265.129 89.618 265.004 89.6744 264.912 89.7746C264.82 89.8748 264.768 90.0107 264.768 90.1524V98.7052C264.768 98.8469 264.82 98.9828 264.912 99.083C265.004 99.1832 265.129 99.2396 265.26 99.2397H279.026C279.157 99.2396 279.282 99.1832 279.374 99.083C279.466 98.9828 279.518 98.8469 279.518 98.7052V90.1524C279.518 90.0107 279.466 89.8748 279.374 89.7746C279.282 89.6744 279.157 89.618 279.026 89.6179H265.26Z" fill="white"/>
<path d="M272.143 95.8391C271.867 95.8395 271.596 95.7557 271.361 95.5971L264.016 90.6058C263.905 90.5305 263.827 90.4107 263.798 90.2726C263.769 90.1346 263.791 89.9896 263.86 89.8695C263.929 89.7495 264.039 89.6641 264.166 89.6321C264.293 89.6002 264.426 89.6242 264.537 89.6991L271.883 94.6904C271.961 94.7431 272.051 94.771 272.143 94.771C272.235 94.771 272.325 94.7431 272.404 94.6904L279.749 89.6991C279.86 89.6242 279.993 89.6002 280.12 89.6321C280.247 89.6641 280.357 89.7495 280.426 89.8695C280.495 89.9896 280.517 90.1346 280.488 90.2726C280.459 90.4107 280.381 90.5305 280.27 90.6058L272.925 95.5971C272.69 95.7557 272.419 95.8396 272.143 95.8391V95.8391Z" fill="white"/>
<path d="M90.7169 174.076C98.8632 174.076 105.467 166.896 105.467 158.04C105.467 149.183 98.8632 142.003 90.7169 142.003C82.5706 142.003 75.9668 149.183 75.9668 158.04C75.9668 166.896 82.5706 174.076 90.7169 174.076Z" fill="#83D39D"/>
<path d="M97.6004 163.92H83.8337C83.4426 163.919 83.0677 163.75 82.7911 163.45C82.5146 163.149 82.3591 162.741 82.3586 162.316V153.764C82.3591 153.338 82.5146 152.931 82.7911 152.63C83.0677 152.329 83.4426 152.16 83.8337 152.16H97.6004C97.9915 152.16 98.3664 152.329 98.6429 152.63C98.9195 152.931 99.075 153.338 99.0754 153.764V162.316C99.075 162.741 98.9195 163.149 98.6429 163.45C98.3664 163.75 97.9915 163.919 97.6004 163.92ZM83.8337 153.229C83.7033 153.229 83.5783 153.285 83.4861 153.386C83.394 153.486 83.3421 153.622 83.342 153.764V162.316C83.3421 162.458 83.394 162.594 83.4861 162.694C83.5783 162.794 83.7033 162.851 83.8337 162.851H97.6004C97.7308 162.851 97.8558 162.794 97.9479 162.694C98.0401 162.594 98.0919 162.458 98.0921 162.316V153.764C98.0919 153.622 98.0401 153.486 97.9479 153.386C97.8558 153.285 97.7308 153.229 97.6004 153.229H83.8337Z" fill="white"/>
<path d="M95.4183 163.92H85.524C85.3513 163.92 85.1817 163.871 85.0322 163.777C84.8827 163.683 84.7585 163.548 84.6722 163.385C84.5859 163.223 84.5405 163.038 84.5405 162.851C84.5406 162.663 84.5861 162.479 84.6724 162.316L87.6527 156.704C87.739 156.541 87.8632 156.406 88.0127 156.312C88.1622 156.218 88.3317 156.169 88.5044 156.169C88.677 156.169 88.8465 156.218 88.996 156.312C89.1455 156.406 89.2697 156.541 89.356 156.704L91.2809 160.328L92.396 158.228C92.4824 158.066 92.6065 157.931 92.756 157.837C92.9055 157.743 93.0751 157.694 93.2477 157.694C93.4203 157.694 93.5899 157.743 93.7394 157.837C93.8889 157.931 94.013 158.066 94.0994 158.228L96.2701 162.316C96.3564 162.479 96.4018 162.663 96.4018 162.851C96.4018 163.039 96.3564 163.223 96.27 163.385C96.1837 163.548 96.0595 163.683 95.91 163.777C95.7605 163.871 95.5909 163.92 95.4183 163.92H95.4183ZM95.4183 162.851L93.2476 158.763L91.7068 161.665C91.6637 161.746 91.6016 161.814 91.5268 161.86C91.4521 161.907 91.3673 161.932 91.2809 161.932V161.932C91.1946 161.932 91.1098 161.907 91.035 161.86C90.9603 161.814 90.8982 161.746 90.855 161.665L88.5045 157.238L85.524 162.851H95.4183Z" fill="white"/>
<path d="M96.1253 156.436C96.6684 156.436 97.1086 155.957 97.1086 155.367C97.1086 154.777 96.6684 154.298 96.1253 154.298C95.5822 154.298 95.142 154.777 95.142 155.367C95.142 155.957 95.5822 156.436 96.1253 156.436Z" fill="white"/>
<path d="M182.168 172.473C190.314 172.473 196.918 165.293 196.918 156.436C196.918 147.579 190.314 140.4 182.168 140.4C174.021 140.4 167.417 147.579 167.417 156.436C167.417 165.293 174.021 172.473 182.168 172.473Z" fill="#83D39D"/>
<path d="M182.168 156.704C181.293 156.704 180.437 156.421 179.709 155.893C178.982 155.364 178.414 154.613 178.08 153.734C177.745 152.855 177.657 151.887 177.828 150.954C177.998 150.021 178.42 149.164 179.039 148.491C179.658 147.818 180.446 147.36 181.304 147.174C182.163 146.988 183.053 147.084 183.861 147.448C184.67 147.812 185.361 148.429 185.847 149.22C186.333 150.011 186.593 150.941 186.593 151.893C186.591 153.168 186.125 154.391 185.295 155.293C184.466 156.195 183.341 156.702 182.168 156.704V156.704ZM182.168 148.151C181.487 148.151 180.822 148.37 180.256 148.781C179.69 149.193 179.248 149.777 178.988 150.461C178.728 151.144 178.659 151.897 178.792 152.623C178.925 153.348 179.253 154.015 179.734 154.538C180.215 155.062 180.829 155.418 181.496 155.563C182.164 155.707 182.856 155.633 183.485 155.35C184.114 155.066 184.651 154.587 185.029 153.971C185.408 153.356 185.609 152.633 185.609 151.893C185.608 150.901 185.245 149.949 184.6 149.248C183.955 148.547 183.08 148.152 182.168 148.151Z" fill="white"/>
<path d="M186.101 165.791H178.234C177.778 165.79 177.341 165.593 177.018 165.242C176.695 164.891 176.514 164.416 176.513 163.92C176.513 162.29 177.109 160.726 178.17 159.573C179.23 158.42 180.668 157.773 182.168 157.773C183.667 157.773 185.105 158.42 186.166 159.573C187.226 160.726 187.822 162.29 187.822 163.92C187.821 164.416 187.64 164.891 187.317 165.242C186.995 165.593 186.557 165.79 186.101 165.791ZM182.168 158.842C180.929 158.843 179.742 159.379 178.866 160.331C177.991 161.283 177.498 162.574 177.497 163.92C177.497 164.132 177.575 164.336 177.713 164.487C177.851 164.637 178.039 164.721 178.234 164.722H186.101C186.297 164.721 186.484 164.637 186.622 164.487C186.761 164.336 186.838 164.132 186.839 163.92C186.837 162.574 186.345 161.283 185.469 160.331C184.593 159.379 183.406 158.843 182.168 158.842V158.842Z" fill="white"/>
<path d="M39.7943 251.877H45.8222L48.6896 226.6L39.7933 226.6L39.7943 251.877Z" fill="#FFB8B8"/>
<path d="M57.4471 257.962L38.5027 257.963L38.5024 250.005L50.1274 250.005C52.0686 250.005 53.9304 250.843 55.3031 252.335C56.6758 253.827 57.4471 255.851 57.4471 257.962V257.962L57.4471 257.962Z" fill="#2F2E41"/>
<path d="M17.1775 251.877H23.2054L26.0728 226.6L17.1765 226.6L17.1775 251.877Z" fill="#FFB8B8"/>
<path d="M34.8303 257.962L15.8859 257.963L15.8856 250.005L27.5106 250.005C29.4518 250.005 31.3136 250.843 32.6863 252.335C34.059 253.827 34.8302 255.851 34.8303 257.962V257.962L34.8303 257.962Z" fill="#2F2E41"/>
<path d="M17.9136 176.593C18.5631 176.139 19.113 175.535 19.5247 174.825C19.9364 174.115 20.1999 173.315 20.2965 172.482C20.3932 171.649 20.3207 170.803 20.0842 170.004C19.8477 169.205 19.4529 168.472 18.9276 167.857L22.8966 106.62L11.4638 107.826L11.1498 167.795C10.2575 168.823 9.74299 170.171 9.70383 171.583C9.66466 172.996 10.1035 174.376 10.9373 175.46C11.771 176.544 12.9417 177.259 14.2275 177.468C15.5133 177.676 16.8249 177.365 17.9137 176.593H17.9136Z" fill="#FFB8B8"/>
<path d="M39.974 239.146C39.4331 239.144 38.9115 238.928 38.507 238.538C38.1025 238.147 37.8428 237.61 37.7768 237.026L34.2731 205.166C34.2238 204.717 34.0268 204.303 33.7186 204C33.4103 203.697 33.0116 203.526 32.5961 203.517C32.1806 203.509 31.7764 203.664 31.4581 203.955C31.1398 204.245 30.9289 204.651 30.8644 205.098L26.4507 235.603C26.3708 236.17 26.1062 236.687 25.705 237.06C25.3038 237.433 24.7928 237.637 24.2651 237.635H17.1113C16.8193 237.634 16.5302 237.572 16.2607 237.45C15.9912 237.328 15.7465 237.149 15.5409 236.923C15.3352 236.698 15.1726 236.431 15.0624 236.137C14.9522 235.843 14.8966 235.528 14.8987 235.211L18.313 167.572C18.3143 166.997 18.5066 166.441 18.8547 166.007C19.2027 165.572 19.6831 165.29 20.2077 165.21L46.7547 161.02C47.0702 160.97 47.3917 160.995 47.6975 161.093C48.0032 161.191 48.2859 161.36 48.5261 161.587C48.7664 161.815 48.9586 162.096 49.0896 162.412C49.2206 162.728 49.2873 163.071 49.2851 163.418L48.822 236.414C48.8181 237.029 48.5975 237.619 48.2055 238.063C47.8135 238.506 47.28 238.77 46.7148 238.799L40.079 239.143C40.0439 239.145 40.0088 239.146 39.974 239.146Z" fill="#2F2E41"/>
<path d="M26.2108 170.128C23.6573 170.117 21.1247 169.627 18.7247 168.679C18.3179 168.516 17.9645 168.225 17.7092 167.844C17.4539 167.463 17.308 167.009 17.2901 166.538C17.061 161.012 15.7212 132.571 11.8205 115.222C11.0623 111.819 11.2477 108.247 12.3534 104.959C13.459 101.67 15.4354 98.8103 18.0334 96.7408C18.2433 96.5768 18.4572 96.4159 18.6752 96.2579C20.9312 94.6251 23.534 93.647 26.2359 93.4168C28.9378 93.1865 31.6489 93.7117 34.1114 94.9424C36.6553 96.18 38.8657 98.1046 40.5321 100.533C42.1985 102.962 43.2656 105.814 43.6318 108.818L49.9928 160.161C50.0337 160.482 50.0142 160.809 49.9355 161.121C49.8568 161.434 49.7205 161.726 49.535 161.979C49.3535 162.231 49.1269 162.44 48.8688 162.594C48.6107 162.748 48.3266 162.843 48.0337 162.874C45.8296 163.113 41.2582 164.041 35.4077 167.575C32.5942 169.27 29.4271 170.149 26.2108 170.128V170.128Z" fill="#642099"/>
<path d="M18.4342 127.568L7.96623 124.482C7.40025 124.314 6.91852 123.91 6.62674 123.356C6.33495 122.803 6.25693 122.147 6.40979 121.531L10.0897 106.775C10.4839 105.194 11.4023 103.828 12.668 102.94C13.9337 102.052 15.4569 101.705 16.944 101.966C18.4312 102.227 19.7768 103.077 20.7215 104.352C21.6662 105.628 22.1431 107.239 22.0601 108.874L21.2224 125.379C21.2043 125.736 21.1128 126.085 20.9547 126.4C20.7966 126.714 20.5759 126.987 20.3086 127.196C20.0414 127.406 19.7344 127.548 19.4101 127.613C19.0858 127.677 18.7523 127.662 18.4342 127.568V127.568Z" fill="#642099"/>
<path d="M30.0869 87.9709C36.7563 87.9709 42.1628 82.0928 42.1628 74.8419C42.1628 67.5909 36.7563 61.7129 30.0869 61.7129C23.4176 61.7129 18.011 67.5909 18.011 74.8419C18.011 82.0928 23.4176 87.9709 30.0869 87.9709Z" fill="#FFB8B8"/>
<path d="M73.8474 100.636C73.7871 100.925 73.7478 101.218 73.7298 101.513L52.6089 114.76L47.4752 111.547L42.0023 119.337L52.9848 127.847L77.0805 107.18C78.0633 107.575 79.1335 107.636 80.1488 107.354C81.1641 107.072 82.0763 106.461 82.7642 105.601C83.4521 104.742 83.8831 103.675 83.9998 102.543C84.1165 101.411 83.9134 100.267 83.4175 99.263C82.9216 98.2594 82.1565 97.4437 81.2238 96.9243C80.2911 96.405 79.2351 96.2067 78.1962 96.3558C77.1573 96.5048 76.1848 96.9942 75.408 97.7589C74.6312 98.5235 74.0868 99.5271 73.8474 100.636V100.636Z" fill="#FFB8B8"/>
<path d="M50.8585 115.399L41.7605 121.818C41.2681 122.165 40.6693 122.285 40.0956 122.152C39.5219 122.019 39.02 121.645 38.7001 121.11L31.0448 108.285C30.2248 106.911 29.9016 105.256 30.1375 103.639C30.3735 102.021 31.152 100.556 32.3228 99.5256C33.4936 98.4952 34.9739 97.9726 36.4782 98.0585C37.9824 98.1445 39.4042 98.8329 40.4692 99.991L51.2188 111.681C51.4519 111.934 51.63 112.241 51.74 112.579C51.85 112.917 51.8891 113.277 51.8546 113.633C51.8201 113.99 51.7127 114.333 51.5404 114.639C51.368 114.944 51.1351 115.204 50.8585 115.399Z" fill="#642099"/>
<path d="M21.5415 85.229C23.7943 87.838 27.9781 86.4374 28.2716 82.8731C28.2947 82.5964 28.293 82.3179 28.2667 82.0415C28.1151 80.4627 27.2761 79.0294 27.4771 77.3623C27.5226 76.9474 27.6648 76.5521 27.8901 76.2136C29.6854 73.6001 33.8995 77.3826 35.5937 75.0166C36.6326 73.5659 35.4114 71.2817 36.2086 69.6602C37.2608 67.5201 40.3774 68.5758 42.3318 67.4038C44.5064 66.0998 44.3763 62.4725 42.9449 60.2661C41.1992 57.5755 38.1385 56.1397 35.1158 55.9328C32.0932 55.7259 29.0915 56.6142 26.2696 57.8098C23.0634 59.1683 19.8839 61.0457 17.9109 64.1108C15.5114 67.8383 15.2805 72.8495 16.4805 77.2081C17.2105 79.8595 19.7018 83.0984 21.5415 85.229Z" fill="#2F2E41"/>
<path d="M69.3255 258H0.49167C0.361271 258 0.236212 257.944 0.144006 257.843C0.0518004 257.743 0 257.607 0 257.465C0 257.324 0.0518004 257.188 0.144006 257.087C0.236212 256.987 0.361271 256.931 0.49167 256.931H69.3255C69.4559 256.931 69.5809 256.987 69.6731 257.087C69.7653 257.188 69.8171 257.324 69.8171 257.465C69.8171 257.607 69.7653 257.743 69.6731 257.843C69.5809 257.944 69.4559 258 69.3255 258Z" fill="#3F3D56"/>
</g>
<defs>
<clipPath id="clip0">
<rect width="449" height="258" fill="white"/>
</clipPath>
</defs>
</svg>
