<svg width="330" height="328" viewBox="0 0 330 328" fill="none" xmlns="http://www.w3.org/2000/svg">
<g clip-path="url(#clip0)">
<path d="M31.7348 276.311L28.8284 264.952C23.6753 262.788 18.4031 260.914 13.037 259.338L12.6702 264.617L11.1824 258.801C4.52746 256.916 0 256.086 0 256.086C0 256.086 6.11399 279.131 18.9419 296.749L33.8875 299.351L22.2767 301.01C23.8903 302.934 25.6244 304.756 27.4687 306.464C46.1275 323.627 66.9102 331.502 73.8877 324.052C80.8652 316.602 71.3956 296.65 52.7368 279.489C46.9524 274.168 39.6861 269.899 32.4122 266.537L31.7348 276.311Z" fill="#F2F2F2"/>
<path d="M59.3745 263.973L62.8116 252.761C59.5295 248.269 55.9943 243.963 52.2229 239.866L49.1552 244.197L50.915 238.456C46.2006 233.435 42.7577 230.406 42.7577 230.406C42.7577 230.406 35.9725 253.266 37.7624 274.918L49.1995 284.801L38.3928 280.274C38.771 282.748 39.3057 285.196 39.994 287.603C47.0144 311.853 60.6978 329.24 70.5565 326.437C80.4151 323.634 82.7162 301.703 75.6958 277.453C73.5195 269.936 69.5259 262.558 65.0525 255.955L59.3745 263.973Z" fill="#F2F2F2"/>
<path d="M230.272 77.7034H228.459V28.4865C228.459 24.7456 227.716 21.0413 226.271 17.5852C224.827 14.1291 222.709 10.9887 220.04 8.34351C217.371 5.69829 214.202 3.59999 210.714 2.16841C207.226 0.736823 203.488 0 199.713 0H94.4874C86.8635 0 79.5519 3.00125 74.161 8.34351C68.77 13.6858 65.7415 20.9314 65.7415 28.4865V298.499C65.7415 302.24 66.485 305.944 67.9296 309.4C69.3742 312.856 71.4916 315.997 74.161 318.642C76.8303 321.287 79.9992 323.385 83.4868 324.817C86.9745 326.249 90.7125 326.985 94.4874 326.985H199.713C207.337 326.985 214.649 323.984 220.04 318.642C225.43 313.299 228.459 306.054 228.459 298.499V112.737H230.272L230.272 77.7034Z" fill="#0D0D0D" fill-opacity="0.7"/>
<path d="M200.873 7.40845H187.139C187.771 8.94317 188.012 10.6083 187.841 12.2571C187.67 13.9059 187.093 15.4878 186.16 16.8634C185.227 18.2391 183.967 19.3662 182.491 20.1455C181.014 20.9248 179.368 21.3324 177.695 21.3323H117.412C115.74 21.3322 114.093 20.9245 112.617 20.1452C111.141 19.3658 109.881 18.2387 108.948 16.8631C108.015 15.4875 107.438 13.9056 107.267 12.2569C107.096 10.6081 107.338 8.9431 107.969 7.40845H95.1405C89.447 7.40845 83.9867 9.64975 79.9608 13.6393C75.9349 17.6288 73.6732 23.0398 73.6732 28.6819V298.302C73.6732 303.944 75.9349 309.355 79.9608 313.345C83.9867 317.334 89.447 319.576 95.1405 319.576H200.873C206.567 319.576 212.027 317.334 216.053 313.345C220.079 309.355 222.341 303.944 222.341 298.302V28.6815C222.34 23.0395 220.079 17.6286 216.053 13.6391C212.027 9.64969 206.567 7.40845 200.873 7.40845Z" fill="white"/>
<path d="M134.534 114.811C134.533 112.927 135.034 111.075 135.985 109.443C136.936 107.811 138.305 106.457 139.952 105.515C138.305 104.573 136.437 104.076 134.536 104.076C132.634 104.076 130.766 104.572 129.119 105.514C127.472 106.456 126.104 107.811 125.154 109.443C124.203 111.075 123.702 112.926 123.702 114.811C123.702 116.695 124.203 118.547 125.154 120.178C126.104 121.81 127.472 123.166 129.119 124.108C130.766 125.05 132.634 125.546 134.536 125.545C136.437 125.545 138.305 125.049 139.952 124.106C138.305 123.165 136.937 121.811 135.985 120.179C135.034 118.547 134.533 116.696 134.534 114.811Z" fill="#CCCCCC"/>
<path d="M148.152 114.811C148.151 112.927 148.652 111.075 149.603 109.443C150.554 107.811 151.922 106.457 153.57 105.515C151.923 104.573 150.055 104.076 148.154 104.076C146.252 104.076 144.384 104.572 142.737 105.514C141.09 106.456 139.722 107.811 138.771 109.443C137.821 111.075 137.32 112.926 137.32 114.811C137.32 116.695 137.821 118.547 138.771 120.178C139.722 121.81 141.09 123.166 142.737 124.108C144.384 125.05 146.252 125.546 148.154 125.545C150.055 125.545 151.923 125.049 153.57 124.106C151.923 123.165 150.554 121.811 149.603 120.179C148.652 118.547 148.151 116.696 148.152 114.811Z" fill="#CCCCCC"/>
<path d="M161.46 125.546C167.443 125.546 172.292 120.74 172.292 114.811C172.292 108.882 167.443 104.076 161.46 104.076C155.478 104.076 150.628 108.882 150.628 114.811C150.628 120.74 155.478 125.546 161.46 125.546Z" fill="#FF5844"/>
<path d="M179.564 148.34H116.43C115.829 148.339 115.253 148.102 114.828 147.681C114.403 147.26 114.164 146.689 114.163 146.093V83.5291C114.164 82.9335 114.403 82.3624 114.828 81.9413C115.253 81.5201 115.829 81.2832 116.43 81.2825H179.564C180.165 81.2832 180.741 81.5201 181.166 81.9413C181.591 82.3624 181.83 82.9335 181.831 83.5291V146.093C181.83 146.689 181.591 147.26 181.166 147.681C180.741 148.102 180.165 148.339 179.564 148.34ZM116.43 82.1817C116.069 82.182 115.724 82.3241 115.469 82.5768C115.214 82.8295 115.07 83.1722 115.07 83.5295V146.093C115.07 146.451 115.214 146.793 115.469 147.046C115.724 147.299 116.069 147.441 116.43 147.441H179.564C179.924 147.441 180.27 147.299 180.525 147.046C180.78 146.793 180.923 146.451 180.924 146.093V83.5295C180.923 83.1722 180.78 82.8295 180.525 82.5768C180.27 82.3241 179.924 82.182 179.564 82.1817H116.43Z" fill="#CCCCCC"/>
<path d="M193.66 196.298H96.8325V197.196H193.66V196.298Z" fill="#CCCCCC"/>
<path d="M99.8903 190.687C101.579 190.687 102.948 189.33 102.948 187.656C102.948 185.983 101.579 184.626 99.8903 184.626C98.2015 184.626 96.8325 185.983 96.8325 187.656C96.8325 189.33 98.2015 190.687 99.8903 190.687Z" fill="#EBE1F2"/>
<path d="M193.66 226.599H96.8325V227.497H193.66V226.599Z" fill="#CCCCCC"/>
<path d="M99.8903 220.988C101.579 220.988 102.948 219.631 102.948 217.958C102.948 216.284 101.579 214.928 99.8903 214.928C98.2015 214.928 96.8325 216.284 96.8325 217.958C96.8325 219.631 98.2015 220.988 99.8903 220.988Z" fill="#EBE1F2"/>
<path d="M191.889 261.104H161.288C160.76 261.104 160.253 260.895 159.879 260.525C159.505 260.155 159.295 259.652 159.295 259.129V248.5C159.295 247.976 159.505 247.474 159.879 247.104C160.253 246.733 160.76 246.525 161.288 246.524H191.889C192.417 246.525 192.924 246.733 193.298 247.104C193.671 247.474 193.882 247.976 193.882 248.5V259.129C193.882 259.652 193.671 260.155 193.298 260.525C192.924 260.895 192.417 261.104 191.889 261.104Z" fill="#EBE1F2"/>
<path d="M109.865 190.687C111.554 190.687 112.923 189.33 112.923 187.656C112.923 185.983 111.554 184.626 109.865 184.626C108.176 184.626 106.807 185.983 106.807 187.656C106.807 189.33 108.176 190.687 109.865 190.687Z" fill="#EBE1F2"/>
<path d="M119.84 190.687C121.529 190.687 122.898 189.33 122.898 187.656C122.898 185.983 121.529 184.626 119.84 184.626C118.151 184.626 116.782 185.983 116.782 187.656C116.782 189.33 118.151 190.687 119.84 190.687Z" fill="#EBE1F2"/>
<path d="M109.865 220.988C111.554 220.988 112.923 219.631 112.923 217.958C112.923 216.284 111.554 214.928 109.865 214.928C108.176 214.928 106.807 216.284 106.807 217.958C106.807 219.631 108.176 220.988 109.865 220.988Z" fill="#EBE1F2"/>
<path d="M119.84 220.988C121.529 220.988 122.898 219.631 122.898 217.958C122.898 216.284 121.529 214.928 119.84 214.928C118.151 214.928 116.782 216.284 116.782 217.958C116.782 219.631 118.151 220.988 119.84 220.988Z" fill="#EBE1F2"/>
<path d="M328.768 328H10.6685C9.98757 328 9.43597 327.76 9.43597 327.465C9.43597 327.17 9.98757 326.93 10.6685 326.93H328.768C329.448 326.93 330 327.17 330 327.465C330 327.761 329.448 328 328.768 328Z" fill="#0D0D0D" fill-opacity="0.7"/>
<path d="M250.176 214.895C250.394 214.994 250.603 215.109 250.801 215.241L270.673 206.836L271.382 201.649L279.322 201.601L278.853 213.498L252.625 220.372C252.57 220.552 252.504 220.729 252.427 220.902C252.047 221.704 251.438 222.377 250.674 222.836C249.91 223.296 249.026 223.522 248.133 223.485C247.24 223.448 246.378 223.151 245.655 222.63C244.933 222.11 244.381 221.389 244.07 220.559C243.759 219.729 243.702 218.826 243.907 217.964C244.112 217.103 244.57 216.32 245.222 215.715C245.875 215.11 246.693 214.709 247.574 214.563C248.456 214.417 249.361 214.533 250.176 214.895Z" fill="#FFB8B8"/>
<path d="M282.21 322.707H276.778L274.194 301.945L282.211 301.946L282.21 322.707Z" fill="#FFB8B8"/>
<path d="M272.898 321.169H283.374V327.705H266.303C266.303 325.971 266.998 324.309 268.235 323.083C269.471 321.857 271.149 321.169 272.898 321.169Z" fill="#2F2E41"/>
<path d="M303.334 321.186L297.929 321.714L293.303 301.303L301.281 300.525L303.334 321.186Z" fill="#FFB8B8"/>
<path d="M293.916 320.56L304.34 319.542L304.987 326.047L287.998 327.705C287.913 326.851 287.999 325.989 288.251 325.167C288.502 324.346 288.914 323.582 289.464 322.918C290.013 322.255 290.689 321.705 291.453 321.3C292.217 320.896 293.054 320.644 293.916 320.56Z" fill="#2F2E41"/>
<path d="M283.722 179.628C289.731 179.628 294.603 174.8 294.603 168.845C294.603 162.889 289.731 158.062 283.722 158.062C277.712 158.062 272.84 162.889 272.84 168.845C272.84 174.8 277.712 179.628 283.722 179.628Z" fill="#FFB8B8"/>
<path d="M275.564 318.508C275.098 318.51 274.645 318.347 274.287 318.05C273.93 317.753 273.689 317.341 273.608 316.885C270.797 301.419 261.607 250.85 261.387 249.45C261.383 249.418 261.38 249.385 261.38 249.352V245.582C261.38 245.445 261.423 245.311 261.504 245.199L262.718 243.514C262.776 243.433 262.852 243.366 262.939 243.319C263.027 243.271 263.125 243.244 263.225 243.24C270.146 242.918 292.813 241.976 293.908 243.331C295.008 244.694 294.62 248.822 294.53 249.636L294.535 249.721L304.718 314.259C304.798 314.773 304.67 315.298 304.362 315.72C304.054 316.142 303.591 316.427 303.072 316.513L296.712 317.551C296.238 317.627 295.753 317.531 295.344 317.282C294.936 317.033 294.631 316.647 294.485 316.193C292.518 309.964 285.922 289.009 283.636 280.9C283.621 280.849 283.589 280.804 283.544 280.775C283.499 280.746 283.445 280.734 283.391 280.741C283.338 280.749 283.29 280.775 283.255 280.816C283.22 280.856 283.201 280.908 283.201 280.961C283.315 288.691 283.591 308.412 283.687 315.223L283.697 315.956C283.701 316.453 283.517 316.933 283.182 317.302C282.846 317.671 282.383 317.901 281.884 317.948L275.75 318.5C275.688 318.506 275.626 318.508 275.564 318.508Z" fill="#83D39D"/>
<path d="M276.816 183.868C274.917 184.987 273.78 187.043 273.128 189.135C271.921 193.008 271.194 197.012 270.964 201.059L270.275 213.177L261.744 245.302C269.138 251.501 273.403 250.092 283.356 245.021C293.309 239.95 294.447 246.712 294.447 246.712L296.437 219.378L299.28 189.509C298.642 188.747 297.92 188.058 297.127 187.456C294.498 185.431 291.44 184.023 288.183 183.339C284.926 182.655 281.554 182.712 278.323 183.507L276.816 183.868Z" fill="#FF5844"/>
<path d="M274.045 221.383C274.274 221.469 274.497 221.572 274.71 221.692L294.358 211.947L294.684 206.667L302.789 206.113L303.223 218.149L276.966 226.754C276.752 227.665 276.262 228.49 275.563 229.119C274.864 229.748 273.988 230.151 273.052 230.275C272.116 230.399 271.165 230.237 270.324 229.812C269.482 229.386 268.792 228.717 268.344 227.894C267.896 227.07 267.712 226.131 267.815 225.201C267.919 224.271 268.306 223.394 268.925 222.687C269.544 221.98 270.365 221.477 271.28 221.244C272.194 221.011 273.159 221.06 274.045 221.383Z" fill="#FFB8B8"/>
<path d="M299.138 189.645C303.972 191.336 304.824 209.654 304.824 209.654C299.137 206.554 292.312 211.627 292.312 211.627C292.312 211.627 290.89 206.836 289.184 200.637C288.669 198.893 288.607 197.048 289.005 195.274C289.403 193.501 290.247 191.855 291.459 190.492C291.459 190.492 294.304 187.953 299.138 189.645Z" fill="#FF5844"/>
<path d="M293.479 171.697C292.123 170.622 290.273 172.576 290.273 172.576L289.188 162.902C289.188 162.902 282.409 163.707 278.071 162.633C273.732 161.56 273.055 166.53 273.055 166.53C272.831 164.522 272.786 162.499 272.919 160.484C273.19 158.065 276.715 155.647 282.952 154.035C289.188 152.422 292.442 159.409 292.442 159.409C296.781 161.558 294.834 172.772 293.479 171.697Z" fill="#2F2E41"/>
</g>
<defs>
<clipPath id="clip0">
<rect width="330" height="328" fill="white"/>
</clipPath>
</defs>
</svg>
